<svg xmlns="http://www.w3.org/2000/svg" xmlns:xlink="http://www.w3.org/1999/xlink" width="118" height="118" viewBox="0 0 118 118">
  <defs>
    <filter id="Rectangle_411831" x="0" y="0" width="118" height="118" filterUnits="userSpaceOnUse">
      <feOffset dy="3" input="SourceAlpha"/>
      <feGaussianBlur stdDeviation="3" result="blur"/>
      <feFlood flood-opacity="0.161"/>
      <feComposite operator="in" in2="blur"/>
      <feComposite in="SourceGraphic"/>
    </filter>
    <clipPath id="clip-path">
      <rect id="Rectangle_437011" data-name="Rectangle 437011" width="63.537" height="70.476" fill="none"/>
    </clipPath>
  </defs>
  <g id="Group_1259680" data-name="Group 1259680" transform="translate(-326.781 -3852)">
    <g transform="matrix(1, 0, 0, 1, 326.78, 3852)" filter="url(#Rectangle_411831)">
      <g id="Rectangle_411831-2" data-name="Rectangle 411831" transform="translate(9 6)" fill="#e8de49" stroke="#fff" stroke-width="2">
        <path d="M5,0H68a32,32,0,0,1,32,32V95a5,5,0,0,1-5,5H32A32,32,0,0,1,0,68V5A5,5,0,0,1,5,0Z" stroke="none"/>
        <path d="M5,1H68A31,31,0,0,1,99,32V95a4,4,0,0,1-4,4H32A31,31,0,0,1,1,68V5A4,4,0,0,1,5,1Z" fill="none"/>
      </g>
    </g>
    <g id="Group_1262013" data-name="Group 1262013" transform="translate(354.013 3872.762)">
      <g id="Group_1262012" data-name="Group 1262012" transform="translate(0 0)" clip-path="url(#clip-path)">
        <path id="Path_1532555" data-name="Path 1532555" d="M40.469,53.915v1.536A4.437,4.437,0,0,1,36.1,59.82H18.384a4.437,4.437,0,0,1-4.369-4.369V53.915H40.469Z" transform="translate(2.402 9.239)" fill="#60534a"/>
        <path id="Path_1532556" data-name="Path 1532556" d="M57.408,43.357A13.509,13.509,0,0,1,43.827,56.939H14.892A13.509,13.509,0,0,1,1.311,43.357V36.271h56.1Z" transform="translate(0.225 6.216)" fill="#73665c"/>
        <path id="Path_1532557" data-name="Path 1532557" d="M47.77,19.836a7.441,7.441,0,1,1-7.441,7.441,7.409,7.409,0,0,1,7.441-7.441m2.952,7.441A2.952,2.952,0,1,0,47.77,30.23a2.922,2.922,0,0,0,2.952-2.953" transform="translate(6.911 3.399)" fill="#ffc36e"/>
        <path id="Path_1532558" data-name="Path 1532558" d="M47.113,23.668A2.952,2.952,0,1,1,44.16,26.62a2.923,2.923,0,0,1,2.953-2.952" transform="translate(7.567 4.056)" fill="#ffd782"/>
        <path id="Path_1532559" data-name="Path 1532559" d="M45.747,4.68a3.925,3.925,0,1,1-5.551,0,3.922,3.922,0,0,1,5.551,0" transform="translate(6.691 0.605)" fill="#a0d887"/>
        <path id="Path_1532560" data-name="Path 1532560" d="M40.994,9.323a3.846,3.846,0,0,1,1.182,2.716,3.9,3.9,0,1,1-3.9-3.9,4.4,4.4,0,0,1,2.715,1.181" transform="translate(5.892 1.395)" fill="#b1ef97"/>
        <path id="Path_1532561" data-name="Path 1532561" d="M11.324,26.188A3.661,3.661,0,1,1,7.663,29.85a3.606,3.606,0,0,1,3.661-3.662" transform="translate(1.313 4.488)" fill="#e5636d"/>
        <path id="Path_1532562" data-name="Path 1532562" d="M8.734,29.85a3.661,3.661,0,1,1-3.662-3.662A3.681,3.681,0,0,1,8.734,29.85" transform="translate(0.242 4.488)" fill="#ff6464"/>
        <path id="Path_1532563" data-name="Path 1532563" d="M8.095,18.022a2.952,2.952,0,1,1-2.952,2.952,2.924,2.924,0,0,1,2.952-2.952" transform="translate(0.881 3.088)" fill="#e46047"/>
        <path id="Path_1532564" data-name="Path 1532564" d="M35.556,21.376a2.441,2.441,0,0,0-2.363,1.417V18.9a2.7,2.7,0,0,0-5.078-1.3V13.7A2.673,2.673,0,0,0,25.4,10.982,2.829,2.829,0,0,0,22.684,13.7v.944l-4.37-4.369a2.672,2.672,0,1,0-3.779,3.779L18.9,18.423H17.96a2.674,2.674,0,0,0-2.718,2.716,2.829,2.829,0,0,0,2.718,2.716h3.9a2.686,2.686,0,0,0-1.417,2.363,2.831,2.831,0,0,0,2.716,2.716h3.779A2.686,2.686,0,0,0,25.517,31.3a2.831,2.831,0,0,0,2.716,2.716h7.2a2.523,2.523,0,0,0,2.008-.945,2.523,2.523,0,0,0,.945-2.008v-7.2a2.829,2.829,0,0,0-2.835-2.48" transform="translate(2.354 1.624)" fill="#5ca659"/>
        <path id="Path_1532565" data-name="Path 1532565" d="M23.01,17.316a1.535,1.535,0,1,1-1.534,1.536,1.564,1.564,0,0,1,1.534-1.536" transform="translate(3.68 2.967)"/>
        <path id="Path_1532566" data-name="Path 1532566" d="M36.323,61.479H18.609a5.922,5.922,0,0,1-5.9-5.906V54.039a1.535,1.535,0,1,1,3.07,0v1.534a2.925,2.925,0,0,0,2.953,2.954H36.442a2.924,2.924,0,0,0,2.952-2.954V54.039a1.536,1.536,0,0,1,3.071,0v1.534a6.378,6.378,0,0,1-6.141,5.906" transform="translate(2.177 8.997)"/>
        <path id="Path_1532567" data-name="Path 1532567" d="M23.989,57.56A15.144,15.144,0,0,1,8.873,42.445a1.535,1.535,0,1,1,3.07,0A12.147,12.147,0,0,0,24.108,54.608a1.563,1.563,0,0,1,1.534,1.536,1.86,1.86,0,0,1-1.653,1.416" transform="translate(1.521 7.01)"/>
        <path id="Path_1532568" data-name="Path 1532568" d="M29.06,57.577a1.535,1.535,0,1,1,0-3.07A12.147,12.147,0,0,0,41.224,42.342a1.536,1.536,0,0,1,3.071,0A15.426,15.426,0,0,1,29.06,57.577" transform="translate(4.717 6.993)"/>
        <path id="Path_1532569" data-name="Path 1532569" d="M44.052,58.6H15.116A15.145,15.145,0,0,1,0,43.48V36.393a1.563,1.563,0,0,1,1.536-1.534h56.1a1.563,1.563,0,0,1,1.536,1.534V43.48A15.145,15.145,0,0,1,44.052,58.6M3.071,37.929V43.6A12.147,12.147,0,0,0,15.236,55.763H44.17A12.147,12.147,0,0,0,56.334,43.6V37.929Z" transform="translate(0 5.974)"/>
        <path id="Path_1532570" data-name="Path 1532570" d="M35.532,35.86h-7.2a4.66,4.66,0,0,1-2.953-1.181,4.1,4.1,0,0,1-1.181-2.953,2.593,2.593,0,0,1,.118-.944H23.249A4.665,4.665,0,0,1,20.3,29.6a4.1,4.1,0,0,1-1.18-2.953,2.617,2.617,0,0,1,.117-.944H18.171a4.66,4.66,0,0,1-2.952-1.182,4.093,4.093,0,0,1-1.182-2.952,4.317,4.317,0,0,1,2.126-3.662l-2.48-2.48A4.1,4.1,0,0,1,12.5,12.477a4.655,4.655,0,0,1,1.182-2.953,4.1,4.1,0,0,1,2.952-1.181,4.66,4.66,0,0,1,2.953,1.181L22.069,12a2.412,2.412,0,0,1,.709-.827,4.177,4.177,0,0,1,7.086,2.953v1.064a2.575,2.575,0,0,1,.945-.119,4.107,4.107,0,0,1,4.133,4.134v1.064a2.6,2.6,0,0,1,.945-.118,4.108,4.108,0,0,1,4.134,4.134v7.2a4.285,4.285,0,0,1-1.3,3.07,4.562,4.562,0,0,1-3.188,1.3M18.171,20.271a1.183,1.183,0,0,0-1.181,1.181,1.075,1.075,0,0,0,.354.827,1.282,1.282,0,0,0,.827.354h3.9a1.4,1.4,0,0,1,1.417,1.181,1.511,1.511,0,0,1-.709,1.654,1.359,1.359,0,0,0-.709,1.062,1.07,1.07,0,0,0,.355.827,1.273,1.273,0,0,0,.826.355h3.9a1.4,1.4,0,0,1,1.417,1.181,1.511,1.511,0,0,1-.708,1.653,1.358,1.358,0,0,0-.71,1.064,1.073,1.073,0,0,0,.355.826,1.273,1.273,0,0,0,.827.355h7.2a1.074,1.074,0,0,0,.944-.472L36.6,32.2a1.462,1.462,0,0,0,.472-.945v-7.2a1.184,1.184,0,0,0-1.182-1.181.908.908,0,0,0-.59.235.926.926,0,0,0-.472.473,1.369,1.369,0,0,1-1.653.709,1.4,1.4,0,0,1-1.182-1.417V19.09a1.184,1.184,0,0,0-1.181-1.182,1.134,1.134,0,0,0-1.062.709,1.369,1.369,0,0,1-1.654.709,1.4,1.4,0,0,1-1.181-1.417v-3.9a1.183,1.183,0,0,0-1.182-1.181,1.069,1.069,0,0,0-.826.355,1.273,1.273,0,0,0-.355.826v.945a1.535,1.535,0,0,1-.944,1.417,1.463,1.463,0,0,1-1.653-.355l-4.37-4.369a1.181,1.181,0,0,0-2.008.827,1.072,1.072,0,0,0,.354.826l4.369,4.37a1.462,1.462,0,0,1,.355,1.653A1.754,1.754,0,0,1,19,20.271Z" transform="translate(2.142 1.43)"/>
        <path id="Path_1532571" data-name="Path 1532571" d="M38.754,36.13a1.442,1.442,0,0,1-1.062-.472L24.465,22.431A1.5,1.5,0,0,1,26.59,20.3L39.817,33.649a1.5,1.5,0,0,1,0,2.126,1.9,1.9,0,0,1-1.062.355" transform="translate(4.117 3.404)"/>
        <path id="Path_1532572" data-name="Path 1532572" d="M5.2,35.27a5.2,5.2,0,1,1,0-10.392,5.2,5.2,0,1,1,0,10.392m0-7.441a2.244,2.244,0,0,0-2.246,2.244A2.172,2.172,0,0,0,5.2,32.317a2.244,2.244,0,0,0,0-4.487" transform="translate(0 4.263)"/>
        <path id="Path_1532573" data-name="Path 1532573" d="M11.548,35.27a5.2,5.2,0,1,1,5.2-5.2,5.243,5.243,0,0,1-5.2,5.2m0-7.441a2.242,2.242,0,0,0-2.243,2.244,2.171,2.171,0,0,0,2.243,2.243,2.171,2.171,0,0,0,2.244-2.243,2.243,2.243,0,0,0-2.244-2.244" transform="translate(1.089 4.263)"/>
        <path id="Path_1532574" data-name="Path 1532574" d="M8.32,25.569A4.429,4.429,0,1,1,12.807,21.2,4.625,4.625,0,0,1,8.32,25.569m0-5.9a1.536,1.536,0,1,0,0,3.071A1.465,1.465,0,0,0,9.737,21.2,1.547,1.547,0,0,0,8.32,19.664" transform="translate(0.657 2.864)"/>
        <path id="Path_1532575" data-name="Path 1532575" d="M38.5,17.7a5.433,5.433,0,1,1,3.779-9.33,5.169,5.169,0,0,1,1.536,3.779A5.349,5.349,0,0,1,38.5,17.7m0-7.794a2.48,2.48,0,1,0,2.48,2.48,2.4,2.4,0,0,0-.709-1.771A2.606,2.606,0,0,0,38.5,9.9" transform="translate(5.667 1.171)"/>
        <path id="Path_1532576" data-name="Path 1532576" d="M43.232,13.023a5.468,5.468,0,0,1-3.78-1.534,5.278,5.278,0,0,1,0-7.559,5.176,5.176,0,0,1,3.78-1.536,5.469,5.469,0,0,1,3.78,1.536,5.278,5.278,0,0,1,0,7.559,5.693,5.693,0,0,1-3.78,1.534m0-7.913a2.611,2.611,0,0,0-1.772.709,2.464,2.464,0,1,0,3.545,0,3.749,3.749,0,0,0-1.772-.709" transform="translate(6.488 0.41)"/>
        <path id="Path_1532577" data-name="Path 1532577" d="M44.986,6.7a1.444,1.444,0,0,1-1.064-.472,1.5,1.5,0,0,1,0-2.126L47.584.444a1.5,1.5,0,0,1,2.125,2.125L46.049,6.23a1.445,1.445,0,0,1-1.062.472" transform="translate(7.451 0)"/>
        <path id="Path_1532578" data-name="Path 1532578" d="M47.338,31.232a4.488,4.488,0,1,1,4.487-4.488,4.412,4.412,0,0,1-4.487,4.488m0-5.9a1.536,1.536,0,1,0,1.536,1.536,1.564,1.564,0,0,0-1.536-1.536" transform="translate(7.343 3.814)"/>
        <path id="Path_1532579" data-name="Path 1532579" d="M47.977,36.342a8.857,8.857,0,1,1,8.858-8.858,8.922,8.922,0,0,1-8.858,8.858m0-14.763a5.9,5.9,0,1,0,5.9,5.9,5.847,5.847,0,0,0-5.9-5.9" transform="translate(6.704 3.192)"/>
        <path id="Path_1532580" data-name="Path 1532580" d="M7.888,20.441a1.564,1.564,0,0,1-1.536-1.536v-5.2a1.536,1.536,0,1,1,3.071,0v5.2a1.643,1.643,0,0,1-1.536,1.536" transform="translate(1.089 2.086)"/>
      </g>
    </g>
  </g>
</svg>
