<svg xmlns="http://www.w3.org/2000/svg" xmlns:xlink="http://www.w3.org/1999/xlink" width="118" height="118" viewBox="0 0 118 118">
  <defs>
    <filter id="Rectangle_411831" x="0" y="0" width="118" height="118" filterUnits="userSpaceOnUse">
      <feOffset dy="3" input="SourceAlpha"/>
      <feGaussianBlur stdDeviation="3" result="blur"/>
      <feFlood flood-opacity="0.161"/>
      <feComposite operator="in" in2="blur"/>
      <feComposite in="SourceGraphic"/>
    </filter>
  </defs>
  <g id="Group_1259683" data-name="Group 1259683" transform="translate(-326.781 -3852)">
    <g transform="matrix(1, 0, 0, 1, 326.78, 3852)" filter="url(#Rectangle_411831)">
      <g id="Rectangle_411831-2" data-name="Rectangle 411831" transform="translate(9 6)" fill="#e8de49" stroke="#fff" stroke-width="2">
        <path d="M5,0H68a32,32,0,0,1,32,32V95a5,5,0,0,1-5,5H32A32,32,0,0,1,0,68V5A5,5,0,0,1,5,0Z" stroke="none"/>
        <path d="M5,1H68A31,31,0,0,1,99,32V95a4,4,0,0,1-4,4H32A31,31,0,0,1,1,68V5A4,4,0,0,1,5,1Z" fill="none"/>
      </g>
    </g>
    <g id="Filled_outline" data-name="Filled outline" transform="translate(338.103 3860.322)">
      <path id="Path_1244458" data-name="Path 1244458" d="M55.678,30.336v6.172A25.2,25.2,0,0,1,39.84,59.9,25.2,25.2,0,0,1,24,36.507V30.336A6.336,6.336,0,0,0,30.336,24H49.342A6.311,6.311,0,0,0,51.2,28.48q.2.2.428.391A6.306,6.306,0,0,0,55.678,30.336Z" transform="translate(-6.944 -6.944)" fill="#e0e0de"/>
      <path id="Path_1244459" data-name="Path 1244459" d="M86.553,62.365v6.172A25.2,25.2,0,0,1,70.715,91.931,25.153,25.153,0,0,1,59.57,83.183,60.451,60.451,0,0,0,82.5,60.9,6.306,6.306,0,0,0,86.553,62.365Z" transform="translate(-37.819 -38.974)" fill="#d6d6d4"/>
      <path id="Path_1244460" data-name="Path 1244460" d="M67.614,83.055A20.863,20.863,0,0,1,56,64.283v-2.83A10.621,10.621,0,0,0,61.453,56H73.776a10.621,10.621,0,0,0,5.454,5.454v2.83A20.863,20.863,0,0,1,67.614,83.055Z" transform="translate(-34.72 -34.72)" fill="#49648e"/>
      <path id="Path_1244461" data-name="Path 1244461" d="M81.056,363.007H91.615V344H80v9.5l1.056,2.112Z" transform="translate(-55.553 -284.707)" fill="#f35244"/>
      <path id="Path_1244462" data-name="Path 1244462" d="M121.056,226.559V216h4.224v10.559l1.056,2.112v4.224H120v-4.224Z" transform="translate(-90.273 -173.602)" fill="#3d4d63"/>
      <path id="Path_1244463" data-name="Path 1244463" d="M136,344h4.224v19.007H136Z" transform="translate(-104.161 -284.707)" fill="#ea4a3b"/>
      <path id="Path_1244464" data-name="Path 1244464" d="M288,240v3.168l5.28,12.671,5.28-12.671V240Z" transform="translate(-236.099 -194.434)" fill="#fec9a3"/>
      <path id="Path_1244465" data-name="Path 1244465" d="M294.076,229.28a8.422,8.422,0,0,0,4.484-1.294V224H288v3.985a8.423,8.423,0,0,0,4.484,1.295Z" transform="translate(-236.099 -180.546)" fill="#feb784"/>
      <path id="Path_1244466" data-name="Path 1244466" d="M210.237,272.714v13.46h-7.391v8.447H175.391v-8.447H168v-13.46a6.334,6.334,0,0,1,5.5-6.279l6.117-.323L183.839,264l5.28,12.671L194.4,264l4.224,2.112,6.116.323A6.333,6.333,0,0,1,210.237,272.714Z" transform="translate(-131.937 -215.266)" fill="#348fd9"/>
      <path id="Path_1244467" data-name="Path 1244467" d="M258.845,314.465v13.46h-7.391v8.447H224v-.012c13.66-5.116,25.012-10.718,34.387-24.261A6.316,6.316,0,0,1,258.845,314.465Z" transform="translate(-180.546 -257.018)" fill="#3086cd"/>
      <path id="Path_1244468" data-name="Path 1244468" d="M401.056,128H400v6.336h1.056a3.168,3.168,0,0,0,0-6.336Z" transform="translate(-333.316 -97.217)" fill="#feb784"/>
      <path id="Path_1244469" data-name="Path 1244469" d="M227.221,128h-.053a3.168,3.168,0,0,0,0,6.336h1.119L228.224,128Z" transform="translate(-180.546 -97.217)" fill="#feb784"/>
      <path id="Path_1244470" data-name="Path 1244470" d="M275.007,57.5v7.391a9.5,9.5,0,0,1-19.007,0V57.5a9.5,9.5,0,0,1,9.5-9.5h.125A9.5,9.5,0,0,1,275.007,57.5Z" transform="translate(-208.322 -27.776)" fill="#fec9a3"/>
      <path id="Path_1244471" data-name="Path 1244471" d="M327.825,57.512V64.9a9.51,9.51,0,0,1-10.975,9.39,11.614,11.614,0,0,0,6.531-10.446V57.512a11.615,11.615,0,0,0-4.935-9.5A9.5,9.5,0,0,1,327.825,57.512Z" transform="translate(-261.141 -27.785)" fill="#fec093"/>
      <path id="Path_1244472" data-name="Path 1244472" d="M274.261,92.057,270.783,88l-.766.153a23.014,23.014,0,0,1-9.028,0L260.224,88l-3.478,4.057-.746.87v3.037a3.146,3.146,0,0,0,2.207.437l2.9-.482a25.342,25.342,0,0,1,8.332,0l2.9.483a3.153,3.153,0,0,0,2.675-.79V92.927Z" transform="translate(-208.322 -62.497)" fill="#fec093"/>
      <path id="Path_1244473" data-name="Path 1244473" d="M260.989,53.432a23.014,23.014,0,0,0,9.028,0l.766-.153,4.224,4.928v-.7A9.5,9.5,0,1,0,256,57.5v.7l4.224-4.927Z" transform="translate(-208.322 -27.776)" fill="#f98500"/>
      <path id="Path_1244474" data-name="Path 1244474" d="M179.523,273.816a2.281,2.281,0,0,0-2.711-1.752L168,274.112v5.28l9.832-2.409A2.552,2.552,0,0,0,179.523,273.816Z" transform="translate(-131.937 -222.21)" fill="#2d7dbf"/>
      <path id="Path_1244475" data-name="Path 1244475" d="M400.092,273.816a2.281,2.281,0,0,1,2.711-1.752l8.812,2.048v5.28l-9.832-2.409A2.552,2.552,0,0,1,400.092,273.816Z" transform="translate(-333.315 -222.21)" fill="#2d7dbf"/>
      <path id="Path_1244476" data-name="Path 1244476" d="M263.523,271.919l-6.468,3.7-1.056-9.5L260.224,264Z" transform="translate(-208.322 -215.266)" fill="#62a9e6"/>
      <path id="Path_1244477" data-name="Path 1244477" d="M350.523,266.112l-1.056,9.5-6.467-3.7L346.3,264Z" transform="translate(-283.839 -215.266)" fill="#62a9e6"/>
      <path id="Path_1244478" data-name="Path 1244478" d="M266.077,105.2a3.206,3.206,0,0,1-3.731,3.149l-2.9-.483a25.386,25.386,0,0,0-8.331,0l-2.9.483a3.2,3.2,0,0,1-3.5-4.345h21.118A3.214,3.214,0,0,1,266.077,105.2Z" transform="translate(-198.337 -76.385)" fill="#348fd9"/>
      <path id="Path_1244479" data-name="Path 1244479" d="M267.348,30.336v4.224H246.23V30.336A6.336,6.336,0,0,1,252.566,24h8.447a6.333,6.333,0,0,1,2,.325c.117.04.234.082.347.128A6.333,6.333,0,0,1,267.348,30.336Z" transform="translate(-199.842 -6.944)" fill="#3086cd"/>
      <path id="Path_1244480" data-name="Path 1244480" d="M288.181,33.313v4.224H270.23A28.049,28.049,0,0,0,284.2,27.43,6.333,6.333,0,0,1,288.181,33.313Z" transform="translate(-220.674 -9.921)" fill="#2d7dbf"/>
      <path id="Path_1244481" data-name="Path 1244481" d="M346.606,105.2a3.206,3.206,0,0,1-3.731,3.149l-2.9-.483a25.251,25.251,0,0,0-2.708-.3,15.155,15.155,0,0,0,5.387-3.56h3.716a3.216,3.216,0,0,1,.234,1.2Z" transform="translate(-278.865 -76.385)" fill="#3086cd"/>
      <path id="Path_1244482" data-name="Path 1244482" d="M308.925,61.164l-1.757,1.171-1.757-1.171A3.168,3.168,0,0,1,304,58.528V56l.776.388a7.563,7.563,0,0,1,4.783,0l.776-.388v2.528A3.168,3.168,0,0,1,308.925,61.164Z" transform="translate(-249.987 -34.72)" fill="#ffb531"/>
      <path id="Path_1244483" data-name="Path 1244483" d="M240,384h7.391v4.224H240Z" transform="translate(-194.434 -319.427)" fill="#62a9e6"/>
      <path id="Path_1244484" data-name="Path 1244484" d="M360,384h7.391v4.224H360Z" transform="translate(-298.595 -319.427)" fill="#62a9e6"/>
      <path id="Path_1244485" data-name="Path 1244485" d="M172.224,397.727h3.168l22.174-4.224h5.28l2.112-2.112h5.28V384h-5.28l-7.391,3.168L168,389.28V393.5A4.224,4.224,0,0,0,172.224,397.727Z" transform="translate(-131.937 -319.427)" fill="#feb784"/>
      <path id="Path_1244486" data-name="Path 1244486" d="M178.237,397.727h-3.168l-26.4-4.224h-5.28l-2.112-2.112H136V384h5.28l7.391,3.168,33.79,2.112V393.5A4.224,4.224,0,0,1,178.237,397.727Z" transform="translate(-104.161 -319.427)" fill="#fec9a3"/>
      <path id="Path_1244487" data-name="Path 1244487" d="M136,80h2.112v2.112H136Z" transform="translate(-104.161 -55.553)"/>
      <path id="Path_1244488" data-name="Path 1244488" d="M80,112h2.112v2.112H80Z" transform="translate(-55.553 -83.329)"/>
      <path id="Path_1244489" data-name="Path 1244489" d="M192,112h2.112v2.112H192Z" transform="translate(-152.77 -83.329)"/>
      <path id="Path_1244490" data-name="Path 1244490" d="M96,168h2.112v2.112H96Z" transform="translate(-69.441 -131.937)"/>
      <path id="Path_1244491" data-name="Path 1244491" d="M176,168h2.112v2.112H176Z" transform="translate(-138.882 -131.937)"/>
      <path id="Path_1244492" data-name="Path 1244492" d="M306.235,180.343H304v2.112h2.235a15.184,15.184,0,0,0,4.406-.647l-.612-2.021A13.075,13.075,0,0,1,306.235,180.343Z" transform="translate(-249.987 -142.169)"/>
      <path id="Path_1244493" data-name="Path 1244493" d="M78.539,50.873l-8.8-2.046a3.166,3.166,0,0,0-2.631.518l-.506-.068-3.081-1.254V45.56a10.5,10.5,0,0,0,4.171-7.386h.053a4.224,4.224,0,0,0,1.15-8.287,4.205,4.205,0,0,0-.094-2.456v-4.04A7.391,7.391,0,0,0,61.4,16H52.957a7.377,7.377,0,0,0-7.129,5.461A5.39,5.39,0,0,1,45,20.783a5.206,5.206,0,0,1-1.546-3.727A1.056,1.056,0,0,0,42.4,16H23.391a1.056,1.056,0,0,0-1.056,1.056,5.289,5.289,0,0,1-5.28,5.28A1.056,1.056,0,0,0,16,23.391v6.167A26.239,26.239,0,0,0,29.727,52.63v.078L28.783,54.6a1.055,1.055,0,0,0-.112.473v3.168H24.447a1.056,1.056,0,0,0-1.056,1.056v9.5a1.055,1.055,0,0,0,.112.472l.944,1.889V78.3A1.056,1.056,0,0,0,25.5,79.355H36.063A1.056,1.056,0,0,0,37.118,78.3v0a5.252,5.252,0,0,0,3.168,1.059s3.3-.006,3.366-.019l12.354-2.352.119.019v2.352h2.112V77.342l12.5,2c.055.009,3.335.013,3.335.013a5.286,5.286,0,0,0,5.28-5.28V51.9a1.056,1.056,0,0,0-.817-1.028Zm-9.308,0,.018,0,8,1.858v3.095l-8.519-2.088a1.248,1.248,0,0,1-.761-.6,1.675,1.675,0,0,1-.167-1.273l-.395-.1.395.1a1.241,1.241,0,0,1,1.433-1ZM66.12,61.283a1.056,1.056,0,0,0,.561-.847l.429-5.153a3.262,3.262,0,0,0,1.107.514l9.027,2.212v5.507H73.02a1.058,1.058,0,0,0-.417.086l-1.695.729V60.349H68.8v3.168H61.4a1.056,1.056,0,0,0-1.056,1.056v2.489l-2.112.148V61.633l1.549-3.407L65.1,61.266a1.056,1.056,0,0,0,1.016.018ZM54.013,67.276v-2.7a1.056,1.056,0,0,0-1.056-1.056H45.566V60.349H43.454v5.79L37.534,63.6a1.057,1.057,0,0,0-.416-.085V58.152c0-.049,0-.1,0-.144l9.03-2.213a3.243,3.243,0,0,0,1.1-.512l.429,5.152a1.056,1.056,0,0,0,1.576.829l5.318-3.039,1.549,3.407v5.732Zm-8.447-1.648H51.9v1.516l-6.336-.4ZM30.783,41.342A1.056,1.056,0,0,0,29.727,42.4v2.663a19.815,19.815,0,0,1-7.391-15.5V27.406a11.648,11.648,0,0,0,5.07-5.07H38.384a11.648,11.648,0,0,0,5.07,5.07v2.152c0,.591-.024,1.156-.069,1.686l-.044.05a1.082,1.082,0,0,0-.113.145,4.239,4.239,0,0,0-.83,2.512,4.1,4.1,0,0,0,.224,1.346,19.753,19.753,0,0,1-6.56,9.766V42.4a1.056,1.056,0,0,0-1.056-1.056ZM55.069,23.808v-.933a3.123,3.123,0,0,0,2.112-.3,3.124,3.124,0,0,0,2.112.3v.933a2.108,2.108,0,0,1-.94,1.757l-1.171.781-1.171-.781A2.108,2.108,0,0,1,55.069,23.808Zm11.843,4.863a2.148,2.148,0,0,1-2.5,2.247l-2.9-.483a26.343,26.343,0,0,0-8.68,0l-2.9.483a2.148,2.148,0,0,1-2.5-2.247ZM61.4,48.533l-3.079,7.8-1.144,2.515-1.143-2.514-3.08-7.806V46.791a10.506,10.506,0,0,0,8.447,0ZM51.335,50.176l2.4,6.1L49.649,58.61l-.612-7.331Zm-.49-2.107-3.07,1.473-.22.044a3.186,3.186,0,0,0-2.928-.759l-4.464,1.038a26.535,26.535,0,0,0,7.105-9.1,10.492,10.492,0,0,0,3.577,4.793ZM45.13,35.442a2.429,2.429,0,0,1-.6-1.574,1.972,1.972,0,0,1,2.085-2.029l.011.011v4.213A2.125,2.125,0,0,1,45.13,35.442Zm-.979,1.929a4.268,4.268,0,0,0,1.947.768A24.34,24.34,0,0,1,36.063,50.2v-2.5a21.848,21.848,0,0,0,8.089-10.321ZM37.118,55.835V52.74l8-1.858.018,0a1.241,1.241,0,0,1,1.433,1A1.674,1.674,0,0,1,46.4,53.15a1.247,1.247,0,0,1-.755.6ZM62.461,66.911V65.628h5.422L65.376,66.7Zm2.253-8.3-4.092-2.338,2.43-6.158,2.293.933Zm-3.68-13.981a8.447,8.447,0,0,1-12.3-7.51V32.976A4.294,4.294,0,0,0,50.293,33l.645-.108a1.584,1.584,0,1,0,2.734-.451,24.223,24.223,0,0,1,7.018,0,1.585,1.585,0,1,0,2.734.451l.645.108s1.286.03,1.559-.025v4.142a8.413,8.413,0,0,1-4.595,7.51Zm8.819-10.678a2.116,2.116,0,0,1-2.112,2.112v-4.21l.013-.012a2.114,2.114,0,0,1,2.1,2.111ZM47.678,23.391a5.28,5.28,0,0,1,5.28-5.28H61.4a5.28,5.28,0,0,1,5.28,5.28v3.168h-6.3a4.214,4.214,0,0,0,1.02-2.751V21.28a1.056,1.056,0,0,0-1.528-.944l-.776.388a1.015,1.015,0,0,1-1.173-.19,1.056,1.056,0,0,0-1.493,0,1.014,1.014,0,0,1-1.173.19l-.776-.388a1.056,1.056,0,0,0-1.528.944v2.528a4.214,4.214,0,0,0,1.02,2.751h-6.3Zm-26,18.8a24.135,24.135,0,0,1-3.567-12.635V24.373a7.418,7.418,0,0,0,6.262-6.261H41.416a7.428,7.428,0,0,0,4.15,5.622v3a1.056,1.056,0,0,0-.631-.967,9.681,9.681,0,0,1-4.917-4.917,1.056,1.056,0,0,0-.967-.631H26.739a1.056,1.056,0,0,0-.967.631,9.681,9.681,0,0,1-4.917,4.917,1.056,1.056,0,0,0-.631.967v2.819a21.91,21.91,0,0,0,9.5,18.133V50.2a24.122,24.122,0,0,1-8.048-8Zm9.1,13.126.944-1.889a1.055,1.055,0,0,0,.112-.472v-9.5h2.112v9.5a1.055,1.055,0,0,0,.112.472l.944,1.889v2.918H30.783Zm4.224,21.925H26.559V74.076h2.112V71.964H26.559V70.908a1.055,1.055,0,0,0-.112-.472l-.82-1.639h3.043V66.684H25.5V64.573h3.168V62.461H25.5V60.349h9.5v3.168H31.839a1.056,1.056,0,0,0-1.056,1.056v7.391a1.056,1.056,0,0,0,1.056,1.056h3.168Zm8.348,0H40.286a3.171,3.171,0,0,1-3.168-3.168v-.619l1.365,1.365a1.056,1.056,0,0,0,.747.309h5.2L49.871,76Zm33.889-3.168a3.171,3.171,0,0,1-3.168,3.168H70.992L44.677,73.033a1.039,1.039,0,0,0-.167-.013H39.668l-1.8-1.8a1.056,1.056,0,0,0-.747-.309H32.895v-5.28H36.9s7.422,3.158,7.542,3.166l32.8,2.05Zm0-5.348-9.806-.613,2.832-1.21,2.968-1.276h4.006Z" transform="translate(0 0)"/>
    </g>
  </g>
</svg>
