<svg xmlns="http://www.w3.org/2000/svg" xmlns:xlink="http://www.w3.org/1999/xlink" width="118" height="118" viewBox="0 0 118 118">
  <defs>
    <filter id="Rectangle_411831" x="0" y="0" width="118" height="118" filterUnits="userSpaceOnUse">
      <feOffset dy="3" input="SourceAlpha"/>
      <feGaussianBlur stdDeviation="3" result="blur"/>
      <feFlood flood-opacity="0.161"/>
      <feComposite operator="in" in2="blur"/>
      <feComposite in="SourceGraphic"/>
    </filter>
  </defs>
  <g id="Group_1255783" data-name="Group 1255783" transform="translate(-791.781 -2537)">
    <g id="Group_1230590" data-name="Group 1230590" transform="translate(465 -1315)">
      <g transform="matrix(1, 0, 0, 1, 326.78, 3852)" filter="url(#Rectangle_411831)">
        <g id="Rectangle_411831-2" data-name="Rectangle 411831" transform="translate(9 6)" fill="#a4e0d4" stroke="#fff" stroke-width="2">
          <path d="M5,0H68a32,32,0,0,1,32,32V95a5,5,0,0,1-5,5H32A32,32,0,0,1,0,68V5A5,5,0,0,1,5,0Z" stroke="none"/>
          <path d="M5,1H68A31,31,0,0,1,99,32V95a4,4,0,0,1-4,4H32A31,31,0,0,1,1,68V5A4,4,0,0,1,5,1Z" fill="none"/>
        </g>
      </g>
    </g>
    <g id="Group_1255784" data-name="Group 1255784" transform="translate(-11586.063 11506.549)">
      <path id="Path_1491170" data-name="Path 1491170" d="M0,40.464V59.807H22.567V40.464Z" transform="translate(12402.995 -8937.183)" fill="#ffd24d" stroke="#000" stroke-linecap="round" stroke-linejoin="round" stroke-width="1" stroke-dasharray="80 5"/>
      <rect id="Rectangle_434868" data-name="Rectangle 434868" width="22.567" height="9.672" transform="translate(12402.995 -8887.048)" fill="#e2b23b" stroke="#000" stroke-linecap="round" stroke-linejoin="round" stroke-width="1" stroke-dasharray="80 5"/>
      <path id="Path_1491171" data-name="Path 1491171" d="M17.7,32.877V61.891H40.27V32.877Z" transform="translate(12407.859 -8939.268)" fill="#fcd884" stroke="#000" stroke-linecap="round" stroke-linejoin="round" stroke-width="1" stroke-dasharray="80 5"/>
      <rect id="Rectangle_434869" data-name="Rectangle 434869" width="22.567" height="9.672" transform="translate(12425.563 -8896.719)" fill="#eabf6a" stroke="#000" stroke-linecap="round" stroke-linejoin="round" stroke-width="1" stroke-dasharray="80 5"/>
      <path id="Path_1491172" data-name="Path 1491172" d="M40.2,17.7H35.3V66.06H57.871V17.7Z" transform="translate(12412.695 -8943.437)" fill="#ffd24d" stroke="#000" stroke-linecap="round" stroke-linejoin="round" stroke-width="1" stroke-dasharray="80 5"/>
      <rect id="Rectangle_434870" data-name="Rectangle 434870" width="22.566" height="9.672" transform="translate(12448.129 -8896.719)" fill="#e2b23b" stroke="#000" stroke-linecap="round" stroke-linejoin="round" stroke-width="1" stroke-dasharray="80 5"/>
      <path id="Path_1491173" data-name="Path 1491173" d="M35.406,25.29v9.672H57.972V25.29Z" transform="translate(12412.723 -8941.352)" fill="#e2b23b" stroke="#000" stroke-linecap="round" stroke-linejoin="round" stroke-width="1" stroke-dasharray="80 5"/>
      <path id="Path_1491174" data-name="Path 1491174" d="M41.233,3.844V21.511H36.462V32.858h-4.9V3.844Z" transform="translate(12411.667 -8947.244)" fill="#da5359" stroke="#000" stroke-linecap="round" stroke-linejoin="round" stroke-width="1" stroke-dasharray="80 5"/>
      <path id="Path_1491175" data-name="Path 1491175" d="M23.974,0V33.914h9.672V0Z" transform="translate(12409.582 -8948.301)" fill="#ef727a" stroke="#000" stroke-linecap="round" stroke-linejoin="round" stroke-width="1" stroke-dasharray="80 5"/>
      <path id="Path_1491176" data-name="Path 1491176" d="M26.059,10.116V31.134H16.388V10.116Z" transform="translate(12407.498 -8945.521)" fill="#da5359" stroke="#000" stroke-linecap="round" stroke-linejoin="round" stroke-width="1" stroke-dasharray="80 5"/>
      <rect id="Rectangle_434871" data-name="Rectangle 434871" width="9.672" height="17.796" transform="translate(12414.214 -8932.182)" fill="#ef727a" stroke="#000" stroke-linecap="round" stroke-linejoin="round" stroke-width="1" stroke-dasharray="80 5"/>
    </g>
  </g>
</svg>
