<svg xmlns="http://www.w3.org/2000/svg" xmlns:xlink="http://www.w3.org/1999/xlink" width="118" height="118" viewBox="0 0 118 118">
  <defs>
    <filter id="Rectangle_411831" x="0" y="0" width="118" height="118" filterUnits="userSpaceOnUse">
      <feOffset dy="3" input="SourceAlpha"/>
      <feGaussianBlur stdDeviation="3" result="blur"/>
      <feFlood flood-opacity="0.161"/>
      <feComposite operator="in" in2="blur"/>
      <feComposite in="SourceGraphic"/>
    </filter>
  </defs>
  <g id="Group_1240922" data-name="Group 1240922" transform="translate(-326.781 -3852)">
    <g transform="matrix(1, 0, 0, 1, 326.78, 3852)" filter="url(#Rectangle_411831)">
      <g id="Rectangle_411831-2" data-name="Rectangle 411831" transform="translate(9 6)" fill="#516f69" stroke="#fff" stroke-width="2">
        <path d="M5,0H68a32,32,0,0,1,32,32V95a5,5,0,0,1-5,5H32A32,32,0,0,1,0,68V5A5,5,0,0,1,5,0Z" stroke="none"/>
        <path d="M5,1H68A31,31,0,0,1,99,32V95a4,4,0,0,1-4,4H32A31,31,0,0,1,1,68V5A4,4,0,0,1,5,1Z" fill="none"/>
      </g>
    </g>
    <g id="Group_1262007" data-name="Group 1262007" transform="translate(355.524 3872)">
      <path id="Path_1532508" data-name="Path 1532508" d="M14.549,31.391v3.983H9.1V28.7Z" transform="translate(0.696 2.195)" fill="#8fa3ad" stroke="#000" stroke-linecap="round" stroke-linejoin="round" stroke-width="1" stroke-dasharray="80 5"/>
      <path id="Path_1532509" data-name="Path 1532509" d="M56.227,31.2v6.674H50.782V33.891Z" transform="translate(3.883 2.386)" fill="#8fa3ad" stroke="#000" stroke-linecap="round" stroke-linejoin="round" stroke-width="1" stroke-dasharray="80 5"/>
      <path id="Path_1532510" data-name="Path 1532510" d="M20.481,34.9V38.99H2.731V34.9h17.75Z" transform="translate(0.209 2.669)" fill="#7e8c8d" stroke="#000" stroke-linecap="round" stroke-linejoin="round" stroke-width="1" stroke-dasharray="80 5"/>
      <path id="Path_1532511" data-name="Path 1532511" d="M59.622,37.4V41.49H41.981V37.4H59.622Z" transform="translate(3.21 2.86)" fill="#7e8c8d" stroke="#000" stroke-linecap="round" stroke-linejoin="round" stroke-width="1" stroke-dasharray="80 5"/>
      <path id="Path_1532512" data-name="Path 1532512" d="M51.455,58.639H41.981V41.2H56.9V58.639Z" transform="translate(3.21 3.151)" fill="#8fa3ad" stroke="#000" stroke-linecap="round" stroke-linejoin="round" stroke-width="1" stroke-dasharray="80 5"/>
      <path id="Path_1532513" data-name="Path 1532513" d="M10.705,58.83H5.26V38.7H20.288V58.83Z" transform="translate(0.402 2.959)" fill="#8fa3ad" stroke="#000" stroke-linecap="round" stroke-linejoin="round" stroke-width="1" stroke-dasharray="80 5"/>
      <path id="Path_1532514" data-name="Path 1532514" d="M43.722,43.02V60.566H19.22V30.856L43.722,17.4V43.02Zm-5.445,8.074H35.554v2.691h2.722Zm0-5.382H35.554V48.4h2.722Zm0-5.382H35.554V43.02h2.722Zm0-5.382H35.554v2.691h2.722ZM32.832,51.093H30.11v2.691h2.722Zm0-5.382H30.11V48.4h2.722Zm0-5.382H30.11V43.02h2.722Zm0-5.382H30.11v2.691h2.722ZM27.387,51.093H24.665v2.691h2.722Zm0-5.382H24.665V48.4h2.722Zm0-5.382H24.665V43.02h2.722Zm0-5.382H24.665v2.691h2.722Z" transform="translate(1.47 1.331)" fill="#95a5a5" stroke="#000" stroke-linecap="round" stroke-linejoin="round" stroke-width="1" stroke-dasharray="80 5"/>
      <g id="Group_1262006" data-name="Group 1262006" transform="translate(0 0)">
        <g id="Group_1262008" data-name="Group 1262008">
          <path id="Path_1532515" data-name="Path 1532515" d="M30.266,3.884A6.656,6.656,0,0,1,36.8,10.665a6.656,6.656,0,0,1-6.533,6.782,4,4,0,0,1-3.921,4.091,3.935,3.935,0,0,1-3.593-2.368A7.524,7.524,0,0,1,17.2,21.538a7.972,7.972,0,0,1-7.841-8.074,7.366,7.366,0,0,1,.436-2.691l-.545-.538a3.939,3.939,0,0,1-3.811,3.229A4,4,0,0,1,1.518,9.374,4,4,0,0,1,5.439,5.283,3.824,3.824,0,0,1,8.051,6.359,5.238,5.238,0,0,1,18.4,5.391a7.851,7.851,0,0,1,5.554,3.768,6.476,6.476,0,0,1,6.316-5.275" transform="translate(0.116 0.1)" fill="#d7deed" stroke="#000" stroke-linecap="round" stroke-linejoin="round" stroke-width="1" stroke-dasharray="80 5"/>
          <rect id="Rectangle_436995" data-name="Rectangle 436995" width="2.722" height="2.691" transform="translate(37.024 52.424)"/>
          <rect id="Rectangle_436996" data-name="Rectangle 436996" width="2.722" height="2.691" transform="translate(37.024 47.042)"/>
          <rect id="Rectangle_436997" data-name="Rectangle 436997" width="2.722" height="2.691" transform="translate(37.024 41.659)"/>
          <rect id="Rectangle_436998" data-name="Rectangle 436998" width="2.722" height="2.691" transform="translate(37.024 36.277)"/>
          <rect id="Rectangle_436999" data-name="Rectangle 436999" width="2.722" height="2.691" transform="translate(31.579 52.424)"/>
          <rect id="Rectangle_437000" data-name="Rectangle 437000" width="2.722" height="2.691" transform="translate(31.579 47.042)"/>
          <rect id="Rectangle_437001" data-name="Rectangle 437001" width="2.722" height="2.691" transform="translate(31.579 41.659)"/>
          <rect id="Rectangle_437002" data-name="Rectangle 437002" width="2.722" height="2.691" transform="translate(31.579 36.277)"/>
          <rect id="Rectangle_437003" data-name="Rectangle 437003" width="2.722" height="2.691" transform="translate(26.135 52.424)"/>
          <rect id="Rectangle_437004" data-name="Rectangle 437004" width="2.722" height="2.691" transform="translate(26.135 47.042)"/>
          <rect id="Rectangle_437005" data-name="Rectangle 437005" width="2.722" height="2.691" transform="translate(26.135 41.659)"/>
          <rect id="Rectangle_437006" data-name="Rectangle 437006" width="2.722" height="2.691" transform="translate(26.135 36.277)"/>
          <path id="Path_1532524" data-name="Path 1532524" d="M10.419,59.855A1.433,1.433,0,0,1,9,58.455V45a1.416,1.416,0,0,1,2.831,0V58.455a1.433,1.433,0,0,1-1.416,1.4" transform="translate(0.688 3.334)"/>
          <path id="Path_1532525" data-name="Path 1532525" d="M50.883,59.472a1.433,1.433,0,0,1-1.416-1.4V50A1.416,1.416,0,0,1,52.3,50v8.074a1.433,1.433,0,0,1-1.416,1.4" transform="translate(3.783 3.717)"/>
        </g>
      </g>
    </g>
  </g>
</svg>
