<svg xmlns="http://www.w3.org/2000/svg" xmlns:xlink="http://www.w3.org/1999/xlink" width="118" height="118" viewBox="0 0 118 118">
  <defs>
    <filter id="Rectangle_411831" x="0" y="0" width="118" height="118" filterUnits="userSpaceOnUse">
      <feOffset dy="3" input="SourceAlpha"/>
      <feGaussianBlur stdDeviation="3" result="blur"/>
      <feFlood flood-opacity="0.161"/>
      <feComposite operator="in" in2="blur"/>
      <feComposite in="SourceGraphic"/>
    </filter>
  </defs>
  <g id="Group_1255666" data-name="Group 1255666" transform="translate(-326.781 -3852)">
    <g transform="matrix(1, 0, 0, 1, 326.78, 3852)" filter="url(#Rectangle_411831)">
      <g id="Rectangle_411831-2" data-name="Rectangle 411831" transform="translate(9 6)" fill="#e8de49" stroke="#fff" stroke-width="2">
        <path d="M5,0H68a32,32,0,0,1,32,32V95a5,5,0,0,1-5,5H32A32,32,0,0,1,0,68V5A5,5,0,0,1,5,0Z" stroke="none"/>
        <path d="M5,1H68A31,31,0,0,1,99,32V95a4,4,0,0,1-4,4H32A31,31,0,0,1,1,68V5A4,4,0,0,1,5,1Z" fill="none"/>
      </g>
    </g>
    <g id="Group_1255753" data-name="Group 1255753" transform="translate(2061.711 7503.693)">
      <rect id="Rectangle_434849" data-name="Rectangle 434849" width="43.672" height="61.139" transform="translate(-1697.765 -3626.262)" fill="#ecf0f1" stroke="#000" stroke-linecap="round" stroke-linejoin="round" stroke-width="1" stroke-dasharray="80 5"/>
      <path id="Path_1491034" data-name="Path 1491034" d="M13.226,26.687V36.936H8.8V25.29h4.425Z" transform="translate(-1696.434 -3622.438)" fill="#c6613e" stroke="#000" stroke-linecap="round" stroke-linejoin="round" stroke-width="1" stroke-dasharray="80 5"/>
      <path id="Path_1491035" data-name="Path 1491035" d="M24.556,26.5v9.084a7.906,7.906,0,0,0-2.446,1.164H20.131V26.5Z" transform="translate(-1694.721 -3622.255)" fill="#e3835a" stroke="#000" stroke-linecap="round" stroke-linejoin="round" stroke-width="1" stroke-dasharray="80 5"/>
      <path id="Path_1491036" data-name="Path 1491036" d="M20.813,27.07V37.318H16.387V22.761h4.425Z" transform="translate(-1695.287 -3622.821)" fill="#c6613e" stroke="#000" stroke-linecap="round" stroke-linejoin="round" stroke-width="1" stroke-dasharray="80 5"/>
      <rect id="Rectangle_434850" data-name="Rectangle 434850" width="4.425" height="10.248" transform="translate(-1683.208 -3595.751)" fill="#e3835a" stroke="#000" stroke-linecap="round" stroke-linejoin="round" stroke-width="1" stroke-dasharray="80 5"/>
      <rect id="Rectangle_434851" data-name="Rectangle 434851" width="4.425" height="7.337" transform="translate(-1691.942 -3592.839)" fill="#e3835a" stroke="#000" stroke-linecap="round" stroke-linejoin="round" stroke-width="1" stroke-dasharray="80 5"/>
      <path id="Path_1491037" data-name="Path 1491037" d="M33.955,37.732a8.508,8.508,0,0,1,.932,3.843,8.036,8.036,0,0,1-16.071,0H26.85Z" transform="translate(-1694.92 -3620.557)" fill="#b53532" stroke="#000" stroke-linecap="round" stroke-linejoin="round" stroke-width="1" stroke-dasharray="80 5"/>
      <path id="Path_1491038" data-name="Path 1491038" d="M25.9,34.091a7.946,7.946,0,0,1,6.987,4.193L25.9,42.125Z" transform="translate(-1693.849 -3621.108)" fill="#da5359" stroke="#000" stroke-linecap="round" stroke-linejoin="round" stroke-width="1" stroke-dasharray="80 5"/>
      <path id="Path_1491039" data-name="Path 1491039" d="M26.952,34.091v8.034H18.916A8.1,8.1,0,0,1,22.294,35.6a7.913,7.913,0,0,1,2.445-1.164,6.791,6.791,0,0,1,2.213-.35" transform="translate(-1694.905 -3621.108)" fill="#ef727a" stroke="#000" stroke-linecap="round" stroke-linejoin="round" stroke-width="1" stroke-dasharray="80 5"/>
      <rect id="Rectangle_434852" data-name="Rectangle 434852" width="32.025" height="11.645" transform="translate(-1691.942 -3620.439)" fill="#535e89" stroke="#000" stroke-linecap="round" stroke-linejoin="round" stroke-width="1" stroke-dasharray="80 5"/>
      <path id="Path_1491040" data-name="Path 1491040" d="M15.4,49.663H5.155a1.514,1.514,0,0,1,0-3.028H15.4a1.514,1.514,0,1,1,0,3.028" transform="translate(-1697.214 -3619.211)" fill="#65b2fe" stroke="#000" stroke-linecap="round" stroke-linejoin="round" stroke-width="1" stroke-dasharray="80 5"/>
      <path id="Path_1491041" data-name="Path 1491041" d="M15.4,45.919H5.155a1.514,1.514,0,1,1,0-3.028H15.4a1.514,1.514,0,1,1,0,3.028" transform="translate(-1697.214 -3619.777)" fill="#65b2fe" stroke="#000" stroke-linecap="round" stroke-linejoin="round" stroke-width="1" stroke-dasharray="80 5"/>
    </g>
  </g>
</svg>
