<svg xmlns="http://www.w3.org/2000/svg" xmlns:xlink="http://www.w3.org/1999/xlink" width="118" height="118" viewBox="0 0 118 118">
  <defs>
    <filter id="Rectangle_411831" x="0" y="0" width="118" height="118" filterUnits="userSpaceOnUse">
      <feOffset dy="3" input="SourceAlpha"/>
      <feGaussianBlur stdDeviation="3" result="blur"/>
      <feFlood flood-opacity="0.161"/>
      <feComposite operator="in" in2="blur"/>
      <feComposite in="SourceGraphic"/>
    </filter>
  </defs>
  <g id="Group_1255739" data-name="Group 1255739" transform="translate(-326.781 -3852)">
    <g transform="matrix(1, 0, 0, 1, 326.78, 3852)" filter="url(#Rectangle_411831)">
      <g id="Rectangle_411831-2" data-name="Rectangle 411831" transform="translate(9 6)" fill="#e8de49" stroke="#fff" stroke-width="2">
        <path d="M5,0H68a32,32,0,0,1,32,32V95a5,5,0,0,1-5,5H32A32,32,0,0,1,0,68V5A5,5,0,0,1,5,0Z" stroke="none"/>
        <path d="M5,1H68A31,31,0,0,1,99,32V95a4,4,0,0,1-4,4H32A31,31,0,0,1,1,68V5A4,4,0,0,1,5,1Z" fill="none"/>
      </g>
    </g>
    <g id="Group_1255751" data-name="Group 1255751" transform="translate(1880.861 7536.519)">
      <path id="Path_1491060" data-name="Path 1491060" d="M30.664,36.8a11.66,11.66,0,0,1,10.947,7.569,12,12,0,0,1,.7,4.075,14.2,14.2,0,0,1-.815,4.426H19.833V52.75a10.518,10.518,0,0,1-.815-4.309,12,12,0,0,1,.7-4.075A11.661,11.661,0,0,1,30.664,36.8l-2.911,7.337,2.911,2.91,2.91-2.91Z" transform="translate(-1525.744 -3655.781)" fill="#ef727a" stroke="#000" stroke-linecap="round" stroke-linejoin="round" stroke-width="1" stroke-dasharray="80 5"/>
      <path id="Path_1491061" data-name="Path 1491061" d="M43.783,52.867H38.541a11.087,11.087,0,0,0,.815-4.426,12,12,0,0,0-.7-4.075A11.658,11.658,0,0,1,49.605,36.8l-2.913,7.337,2.913,2.91,2.911-2.91L49.605,36.8A11.68,11.68,0,0,1,61.251,48.441a14.164,14.164,0,0,1-.816,4.426H43.783Z" transform="translate(-1522.792 -3655.781)" fill="#65b2fe" stroke="#000" stroke-linecap="round" stroke-linejoin="round" stroke-width="1" stroke-dasharray="80 5"/>
      <path id="Path_1491062" data-name="Path 1491062" d="M.1,48.442A11.679,11.679,0,0,1,11.747,36.8L8.835,44.134l2.911,2.91,2.911-2.91L11.747,36.8a11.658,11.658,0,0,1,10.947,7.569,12,12,0,0,0-.7,4.075,13.421,13.421,0,0,0,.815,4.309l-.235.117H.916A11.087,11.087,0,0,1,.1,48.442" transform="translate(-1528.604 -3655.78)" fill="#65b2fe" stroke="#000" stroke-linecap="round" stroke-linejoin="round" stroke-width="1" stroke-dasharray="80 5"/>
      <path id="Path_1491063" data-name="Path 1491063" d="M48.534,36.8l2.911,7.337-2.911,2.91-2.911-2.91Z" transform="translate(-1521.721 -3655.781)" fill="#313a52" stroke="#000" stroke-linecap="round" stroke-linejoin="round" stroke-width="1" stroke-dasharray="80 5"/>
      <path id="Path_1491064" data-name="Path 1491064" d="M29.516,36.8l2.91,7.337-2.91,2.91L26.6,44.133Z" transform="translate(-1524.597 -3655.781)" fill="#313a52" stroke="#000" stroke-linecap="round" stroke-linejoin="round" stroke-width="1" stroke-dasharray="80 5"/>
      <path id="Path_1491065" data-name="Path 1491065" d="M10.6,36.8l2.911,7.337L10.6,47.043l-2.911-2.91Z" transform="translate(-1527.457 -3655.781)" fill="#313a52" stroke="#000" stroke-linecap="round" stroke-linejoin="round" stroke-width="1" stroke-dasharray="80 5"/>
      <path id="Path_1491066" data-name="Path 1491066" d="M48.916,26.68A5.823,5.823,0,1,1,43.093,32.5a5.824,5.824,0,0,1,5.823-5.823" transform="translate(-1522.103 -3657.31)" fill="#ffd8a8" stroke="#000" stroke-linecap="round" stroke-linejoin="round" stroke-width="1" stroke-dasharray="80 5"/>
      <path id="Path_1491067" data-name="Path 1491067" d="M29.9,26.68A5.823,5.823,0,1,1,24.075,32.5,5.824,5.824,0,0,1,29.9,26.68" transform="translate(-1524.979 -3657.31)" fill="#ffd8a8" stroke="#000" stroke-linecap="round" stroke-linejoin="round" stroke-width="1" stroke-dasharray="80 5"/>
      <path id="Path_1491068" data-name="Path 1491068" d="M10.982,26.68A5.823,5.823,0,1,1,5.159,32.5a5.824,5.824,0,0,1,5.823-5.823" transform="translate(-1527.84 -3657.31)" fill="#ffd8a8" stroke="#000" stroke-linecap="round" stroke-linejoin="round" stroke-width="1" stroke-dasharray="80 5"/>
      <path id="Path_1491069" data-name="Path 1491069" d="M46.49,26.523l-9.432-5.357V13.247h4.424a1.513,1.513,0,0,0,1.4-.932,1.441,1.441,0,0,0-.349-1.63L32.283.437a1.476,1.476,0,0,0-2.1,0L20.055,10.8a1.441,1.441,0,0,0-.349,1.63,1.4,1.4,0,0,0,1.4.931h4.308v7.919L15.98,26.64a1.492,1.492,0,0,0-.583,1.979,1.46,1.46,0,0,0,1.281.7,1.652,1.652,0,0,0,.7-.233l10.247-5.823h.234V11.849a1.542,1.542,0,0,0-1.514-1.514H24.015L30.653,3.7l6.638,6.638h-2.33a1.541,1.541,0,0,0-1.513,1.514V23.379h.233L43.929,29.2a1.662,1.662,0,0,0,.7.233,1.459,1.459,0,0,0,1.28-.7c1.515-.931,1.281-1.748.583-2.213" transform="translate(-1526.316 -3661.344)" fill="#313a52" stroke="#000" stroke-linecap="round" stroke-linejoin="round" stroke-width="1" stroke-dasharray="80 5"/>
      <path id="Path_1491070" data-name="Path 1491070" d="M65.564,57.426H1.513a1.514,1.514,0,0,1,0-3.028H65.564a1.541,1.541,0,0,1,1.514,1.513,1.468,1.468,0,0,1-1.514,1.515" transform="translate(-1528.62 -3653.119)" fill="#3c3b3d" stroke="#000" stroke-linecap="round" stroke-linejoin="round" stroke-width="1" stroke-dasharray="80 5"/>
    </g>
  </g>
</svg>
