<svg xmlns="http://www.w3.org/2000/svg" xmlns:xlink="http://www.w3.org/1999/xlink" width="118" height="118" viewBox="0 0 118 118">
  <defs>
    <filter id="Rectangle_411831" x="0" y="0" width="118" height="118" filterUnits="userSpaceOnUse">
      <feOffset dy="3" input="SourceAlpha"/>
      <feGaussianBlur stdDeviation="3" result="blur"/>
      <feFlood flood-opacity="0.161"/>
      <feComposite operator="in" in2="blur"/>
      <feComposite in="SourceGraphic"/>
    </filter>
    <clipPath id="clip-path">
      <rect id="Rectangle_434821" data-name="Rectangle 434821" width="71.217" height="69.466" fill="none"/>
    </clipPath>
  </defs>
  <g id="Group_1255688" data-name="Group 1255688" transform="translate(-326.781 -3852)">
    <g transform="matrix(1, 0, 0, 1, 326.78, 3852)" filter="url(#Rectangle_411831)">
      <g id="Rectangle_411831-2" data-name="Rectangle 411831" transform="translate(9 6)" fill="#e8de49" stroke="#fff" stroke-width="2">
        <path d="M5,0H68a32,32,0,0,1,32,32V95a5,5,0,0,1-5,5H32A32,32,0,0,1,0,68V5A5,5,0,0,1,5,0Z" stroke="none"/>
        <path d="M5,1H68A31,31,0,0,1,99,32V95a4,4,0,0,1-4,4H32A31,31,0,0,1,1,68V5A4,4,0,0,1,5,1Z" fill="none"/>
      </g>
    </g>
    <g id="Group_1255715" data-name="Group 1255715" transform="translate(350.172 3873.267)">
      <g id="Group_1255690" data-name="Group 1255690" transform="translate(0 0)">
        <g id="Group_1255689" data-name="Group 1255689" clip-path="url(#clip-path)">
          <path id="Path_1490872" data-name="Path 1490872" d="M55.4,30.024V40.805H28.595V30.024a8.266,8.266,0,0,1,8.268-8.266,6.83,6.83,0,0,1,1.805,1.41,4.9,4.9,0,0,0,6.663,0,6.805,6.805,0,0,1,1.805-1.41A8.266,8.266,0,0,1,55.4,30.024" transform="translate(14.68 11.169)" fill="#29abe2"/>
          <path id="Path_1490873" data-name="Path 1490873" d="M46.142,18.046a6.489,6.489,0,1,1-6.489-6.489,6.49,6.49,0,0,1,6.489,6.489" transform="translate(17.025 5.933)" fill="#fbb03b"/>
          <path id="Path_1490874" data-name="Path 1490874" d="M27.558,29.647v11.2H.75v-11.2a8.268,8.268,0,0,1,8.268-8.268H19.29a8.268,8.268,0,0,1,8.268,8.268" transform="translate(0.385 10.975)" fill="#f15a24"/>
          <path id="Path_1490875" data-name="Path 1490875" d="M18.3,17.668a6.489,6.489,0,1,1-6.489-6.489A6.49,6.49,0,0,1,18.3,17.668" transform="translate(2.731 5.738)" fill="#fbb03b"/>
          <path id="Path_1490876" data-name="Path 1490876" d="M28.065,19.261a3.67,3.67,0,1,1-3.67-3.67,3.67,3.67,0,0,1,3.67,3.67" transform="translate(10.639 8.003)" fill="#29abe2"/>
        </g>
      </g>
      <g id="Group_1255692" data-name="Group 1255692" transform="translate(0 0)">
        <g id="Group_1255691" data-name="Group 1255691" clip-path="url(#clip-path)">
          <path id="Path_1490877" data-name="Path 1490877" d="M43.7,40.807h-15.1V30.026a8.267,8.267,0,0,1,8.266-8.268,6.826,6.826,0,0,1,1.805,1.412,4.9,4.9,0,0,0,6.663,0,6.851,6.851,0,0,1,1.805-1.412A8.268,8.268,0,0,1,55.4,30.026V40.807H48.488" transform="translate(14.68 11.169)" fill="none" stroke="#000" stroke-linecap="round" stroke-linejoin="round" stroke-width="1.5"/>
          <line id="Line_616" data-name="Line 616" y1="9.315" transform="translate(48.009 42.661)" fill="none" stroke="#000" stroke-linecap="round" stroke-linejoin="round" stroke-width="1.5"/>
          <line id="Line_617" data-name="Line 617" y2="9.315" transform="translate(65.347 42.66)" fill="none" stroke="#000" stroke-linecap="round" stroke-linejoin="round" stroke-width="1.5"/>
          <circle id="Ellipse_14133" data-name="Ellipse 14133" cx="6.489" cy="6.489" r="6.489" transform="translate(50.188 17.49)" fill="none" stroke="#000" stroke-linecap="round" stroke-linejoin="round" stroke-width="1.5"/>
          <path id="Path_1490878" data-name="Path 1490878" d="M.75,32.168V29.647a8.268,8.268,0,0,1,8.268-8.268H19.29a8.268,8.268,0,0,1,8.268,8.268v11.2H.75V37.717" transform="translate(0.385 10.975)" fill="none" stroke="#000" stroke-linecap="round" stroke-linejoin="round" stroke-width="1.5"/>
          <path id="Path_1490879" data-name="Path 1490879" d="M21.1,27.811v9.734H3.938V27.811" transform="translate(2.022 14.277)" fill="none" stroke="#000" stroke-linecap="round" stroke-linejoin="round" stroke-width="1.5"/>
          <path id="Path_1490880" data-name="Path 1490880" d="M8.7,11.969a6.483,6.483,0,1,1-2.753,2.9" transform="translate(2.731 5.738)" fill="none" stroke="#000" stroke-linecap="round" stroke-linejoin="round" stroke-width="1.5"/>
          <path id="Path_1490881" data-name="Path 1490881" d="M8.053,21.379h4.7l-.779,3.714H8.833Z" transform="translate(4.134 10.975)" fill="none" stroke="#000" stroke-linecap="round" stroke-linejoin="round" stroke-width="1.5"/>
          <path id="Path_1490882" data-name="Path 1490882" d="M8.93,23.833,7.865,34.72l1.014,4.867h3.245l1.014-4.867L12.072,23.833Z" transform="translate(4.038 12.235)" fill="none" stroke="#000" stroke-linecap="round" stroke-linejoin="round" stroke-width="1.5"/>
          <path id="Path_1490883" data-name="Path 1490883" d="M11.961,9.789a20.509,20.509,0,0,1,33.972-.047" transform="translate(6.14 0.385)" fill="none" stroke="#000" stroke-linecap="round" stroke-linejoin="round" stroke-width="1.5"/>
          <path id="Path_1490884" data-name="Path 1490884" d="M11.787,4.157V7.993h3.836" transform="translate(6.051 2.134)" fill="none" stroke="#000" stroke-linecap="round" stroke-linejoin="round" stroke-width="1.5"/>
          <path id="Path_1490885" data-name="Path 1490885" d="M45.758,39.179a20.509,20.509,0,0,1-33.972.047" transform="translate(6.051 20.113)" fill="none" stroke="#000" stroke-linecap="round" stroke-linejoin="round" stroke-width="1.5"/>
          <path id="Path_1490886" data-name="Path 1490886" d="M35.71,43.047V39.21H31.874" transform="translate(16.363 20.129)" fill="none" stroke="#000" stroke-linecap="round" stroke-linejoin="round" stroke-width="1.5"/>
          <circle id="Ellipse_14134" data-name="Ellipse 14134" cx="3.67" cy="3.67" r="3.67" transform="translate(31.364 23.595)" fill="none" stroke="#000" stroke-linecap="round" stroke-linejoin="round" stroke-width="1.5"/>
        </g>
      </g>
    </g>
  </g>
</svg>
