<svg xmlns="http://www.w3.org/2000/svg" xmlns:xlink="http://www.w3.org/1999/xlink" width="118" height="118" viewBox="0 0 118 118">
  <defs>
    <filter id="Rectangle_411831" x="0" y="0" width="118" height="118" filterUnits="userSpaceOnUse">
      <feOffset dy="3" input="SourceAlpha"/>
      <feGaussianBlur stdDeviation="3" result="blur"/>
      <feFlood flood-opacity="0.161"/>
      <feComposite operator="in" in2="blur"/>
      <feComposite in="SourceGraphic"/>
    </filter>
  </defs>
  <g id="Group_1255723" data-name="Group 1255723" transform="translate(-791.781 -2537)">
    <g id="Group_1230590" data-name="Group 1230590" transform="translate(465 -1315)">
      <g transform="matrix(1, 0, 0, 1, 326.78, 3852)" filter="url(#Rectangle_411831)">
        <g id="Rectangle_411831-2" data-name="Rectangle 411831" transform="translate(9 6)" fill="#a4e0d4" stroke="#fff" stroke-width="2">
          <path d="M5,0H68a32,32,0,0,1,32,32V95a5,5,0,0,1-5,5H32A32,32,0,0,1,0,68V5A5,5,0,0,1,5,0Z" stroke="none"/>
          <path d="M5,1H68A31,31,0,0,1,99,32V95a4,4,0,0,1-4,4H32A31,31,0,0,1,1,68V5A4,4,0,0,1,5,1Z" fill="none"/>
        </g>
      </g>
    </g>
    <g id="Group_1255724" data-name="Group 1255724" transform="translate(821.276 2560.689)">
      <rect id="Rectangle_434836" data-name="Rectangle 434836" width="42.183" height="54.748" rx="4.441" transform="translate(8.414 8.526)" fill="#ecf0f1" stroke="#000" stroke-linecap="round" stroke-linejoin="round" stroke-width="1" stroke-dasharray="80 5"/>
      <path id="Path_1490921" data-name="Path 1490921" d="M39.261,5.5a4.139,4.139,0,0,1,1.234,3.029,4.261,4.261,0,0,1-4.263,4.264H19.4a4.334,4.334,0,0,1-3.029-1.234,4.145,4.145,0,0,1-1.235-3.03A4.261,4.261,0,0,1,19.4,4.264h4.263a4.263,4.263,0,1,1,8.526,0h4.039A4.336,4.336,0,0,1,39.261,5.5" transform="translate(1.688)" fill="#57606f" stroke="#000" stroke-linecap="round" stroke-linejoin="round" stroke-width="1" stroke-dasharray="80 5"/>
      <path id="Path_1490922" data-name="Path 1490922" d="M57.553,58.431H1.458a1.458,1.458,0,1,1,0-2.917H57.553a1.458,1.458,0,1,1,0,2.917" transform="translate(0 6.19)" fill="#313a52" stroke="#000" stroke-linecap="round" stroke-linejoin="round" stroke-width="1" stroke-dasharray="80 5"/>
      <path id="Path_1490923" data-name="Path 1490923" d="M45.209,24.315H11.551a1.459,1.459,0,0,1,0-2.918H45.209a1.459,1.459,0,0,1,0,2.918" transform="translate(1.125 2.386)" fill="#57606f" stroke="#000" stroke-linecap="round" stroke-linejoin="round" stroke-width="1" stroke-dasharray="80 5"/>
      <path id="Path_1490924" data-name="Path 1490924" d="M37.127,20.581H21.645a1.459,1.459,0,0,1,0-2.918H37.127a1.485,1.485,0,0,1,1.458,1.459,1.663,1.663,0,0,1-1.458,1.458" transform="translate(2.251 1.969)" fill="#57606f" stroke="#000" stroke-linecap="round" stroke-linejoin="round" stroke-width="1" stroke-dasharray="80 5"/>
      <path id="Path_1490925" data-name="Path 1490925" d="M23.8,16.746H15.387a1.458,1.458,0,1,1,0-2.917H23.8a1.484,1.484,0,0,1,1.458,1.458A1.665,1.665,0,0,1,23.8,16.746" transform="translate(1.553 1.542)" fill="#57606f" stroke="#000" stroke-linecap="round" stroke-linejoin="round" stroke-width="1" stroke-dasharray="80 5"/>
      <path id="Path_1490926" data-name="Path 1490926" d="M24.45,30.674h-2.8a1.458,1.458,0,1,1,0-2.917h2.8a1.458,1.458,0,1,1,0,2.917" transform="translate(2.251 3.095)" fill="#afb9d2" stroke="#000" stroke-linecap="round" stroke-linejoin="round" stroke-width="1" stroke-dasharray="80 5"/>
      <path id="Path_1490927" data-name="Path 1490927" d="M43.239,30.674H29.215a1.458,1.458,0,1,1,0-2.917H43.239a1.458,1.458,0,1,1,0,2.917" transform="translate(3.095 3.095)" fill="#afb9d2" stroke="#000" stroke-linecap="round" stroke-linejoin="round" stroke-width="1" stroke-dasharray="80 5"/>
      <path id="Path_1490928" data-name="Path 1490928" d="M42.26,34.409H38a1.458,1.458,0,1,1,0-2.917H42.26a1.458,1.458,0,1,1,0,2.917" transform="translate(4.074 3.511)" fill="#afb9d2" stroke="#000" stroke-linecap="round" stroke-linejoin="round" stroke-width="1" stroke-dasharray="80 5"/>
      <path id="Path_1490929" data-name="Path 1490929" d="M34.322,34.409H21.645a1.458,1.458,0,1,1,0-2.917H34.322A1.484,1.484,0,0,1,35.78,32.95a1.567,1.567,0,0,1-1.458,1.458" transform="translate(2.251 3.511)" fill="#afb9d2" stroke="#000" stroke-linecap="round" stroke-linejoin="round" stroke-width="1" stroke-dasharray="80 5"/>
      <path id="Path_1490930" data-name="Path 1490930" d="M13.569,34.7h0a1.988,1.988,0,0,1-1.122-.449l-2.02-2.355a1.441,1.441,0,0,1,.225-2.02,1.342,1.342,0,0,1,2.018.223l1.01,1.235L16.822,28.3a1.428,1.428,0,1,1,2.02,2.02L14.467,34.25a1.386,1.386,0,0,1-.9.449" transform="translate(1.128 3.109)" fill="#80af52" stroke="#000" stroke-linecap="round" stroke-linejoin="round" stroke-width="1" stroke-dasharray="80 5"/>
      <path id="Path_1490931" data-name="Path 1490931" d="M24.45,39.456h-2.8a1.458,1.458,0,1,1,0-2.917h2.8a1.458,1.458,0,1,1,0,2.917" transform="translate(2.251 4.074)" fill="#afb9d2" stroke="#000" stroke-linecap="round" stroke-linejoin="round" stroke-width="1" stroke-dasharray="80 5"/>
      <path id="Path_1490932" data-name="Path 1490932" d="M43.239,39.444H29.215a1.484,1.484,0,0,1-1.458-1.458,1.39,1.39,0,0,1,1.458-1.346H43.239A1.486,1.486,0,0,1,44.7,38.1a1.391,1.391,0,0,1-1.458,1.346" transform="translate(3.095 4.086)" fill="#afb9d2" stroke="#000" stroke-linecap="round" stroke-linejoin="round" stroke-width="1" stroke-dasharray="80 5"/>
      <path id="Path_1490933" data-name="Path 1490933" d="M42.26,43.291H38a1.458,1.458,0,1,1,0-2.917H42.26a1.458,1.458,0,1,1,0,2.917" transform="translate(4.074 4.502)" fill="#afb9d2" stroke="#000" stroke-linecap="round" stroke-linejoin="round" stroke-width="1" stroke-dasharray="80 5"/>
      <path id="Path_1490934" data-name="Path 1490934" d="M34.322,43.291H21.645a1.458,1.458,0,1,1,0-2.917H34.322a1.484,1.484,0,0,1,1.458,1.458,1.566,1.566,0,0,1-1.458,1.458" transform="translate(2.251 4.502)" fill="#afb9d2" stroke="#000" stroke-linecap="round" stroke-linejoin="round" stroke-width="1" stroke-dasharray="80 5"/>
      <path id="Path_1490935" data-name="Path 1490935" d="M13.569,43.48h0a1.988,1.988,0,0,1-1.122-.449l-2.02-2.355a1.441,1.441,0,0,1,.225-2.02,1.341,1.341,0,0,1,2.018.225l1.01,1.234,3.141-3.029a1.428,1.428,0,1,1,2.02,2.018l-4.263,4.039a1.811,1.811,0,0,1-1.01.337" transform="translate(1.128 4.088)" fill="#80af52" stroke="#000" stroke-linecap="round" stroke-linejoin="round" stroke-width="1" stroke-dasharray="80 5"/>
      <path id="Path_1490936" data-name="Path 1490936" d="M24.45,48.338h-2.8a1.458,1.458,0,1,1,0-2.917h2.8a1.458,1.458,0,1,1,0,2.917" transform="translate(2.251 5.065)" fill="#afb9d2" stroke="#000" stroke-linecap="round" stroke-linejoin="round" stroke-width="1" stroke-dasharray="80 5"/>
      <path id="Path_1490937" data-name="Path 1490937" d="M43.239,48.338H29.215a1.458,1.458,0,1,1,0-2.917H43.239a1.458,1.458,0,1,1,0,2.917" transform="translate(3.095 5.065)" fill="#afb9d2" stroke="#000" stroke-linecap="round" stroke-linejoin="round" stroke-width="1" stroke-dasharray="80 5"/>
      <path id="Path_1490938" data-name="Path 1490938" d="M42.26,52.072H38a1.458,1.458,0,1,1,0-2.917H42.26a1.458,1.458,0,1,1,0,2.917" transform="translate(4.074 5.481)" fill="#afb9d2" stroke="#000" stroke-linecap="round" stroke-linejoin="round" stroke-width="1" stroke-dasharray="80 5"/>
      <path id="Path_1490939" data-name="Path 1490939" d="M34.322,52.072H21.645a1.458,1.458,0,1,1,0-2.917H34.322a1.484,1.484,0,0,1,1.458,1.458,1.663,1.663,0,0,1-1.458,1.458" transform="translate(2.251 5.481)" fill="#afb9d2" stroke="#000" stroke-linecap="round" stroke-linejoin="round" stroke-width="1" stroke-dasharray="80 5"/>
      <path id="Path_1490940" data-name="Path 1490940" d="M13.569,52.363h0a1.988,1.988,0,0,1-1.122-.449l-2.02-2.355a1.436,1.436,0,1,1,2.243-1.8L13.681,49l3.141-3.029a1.428,1.428,0,1,1,2.02,2.02l-4.263,4.038a3.568,3.568,0,0,1-1.01.337" transform="translate(1.128 5.079)" fill="#80af52" stroke="#000" stroke-linecap="round" stroke-linejoin="round" stroke-width="1" stroke-dasharray="80 5"/>
    </g>
  </g>
</svg>
