<svg xmlns="http://www.w3.org/2000/svg" xmlns:xlink="http://www.w3.org/1999/xlink" width="118" height="118" viewBox="0 0 118 118">
  <defs>
    <filter id="Rectangle_411831" x="0" y="0" width="118" height="118" filterUnits="userSpaceOnUse">
      <feOffset dy="3" input="SourceAlpha"/>
      <feGaussianBlur stdDeviation="3" result="blur"/>
      <feFlood flood-opacity="0.161"/>
      <feComposite operator="in" in2="blur"/>
      <feComposite in="SourceGraphic"/>
    </filter>
  </defs>
  <g id="Group_1255735" data-name="Group 1255735" transform="translate(-791.781 -2537)">
    <g id="Group_1230590" data-name="Group 1230590" transform="translate(465 -1315)">
      <g transform="matrix(1, 0, 0, 1, 326.78, 3852)" filter="url(#Rectangle_411831)">
        <g id="Rectangle_411831-2" data-name="Rectangle 411831" transform="translate(9 6)" fill="#a4e0d4" stroke="#fff" stroke-width="2">
          <path d="M5,0H68a32,32,0,0,1,32,32V95a5,5,0,0,1-5,5H32A32,32,0,0,1,0,68V5A5,5,0,0,1,5,0Z" stroke="none"/>
          <path d="M5,1H68A31,31,0,0,1,99,32V95a4,4,0,0,1-4,4H32A31,31,0,0,1,1,68V5A4,4,0,0,1,5,1Z" fill="none"/>
        </g>
      </g>
    </g>
    <g id="Group_1255736" data-name="Group 1255736" transform="translate(817.24 2560.184)">
      <path id="Path_1491010" data-name="Path 1491010" d="M60.551,32.148a28.109,28.109,0,0,1-15.4,24.779l-12.613-25L53.3,26.679,59.769,25a32.369,32.369,0,0,1,.894,6.7v.335Z" transform="translate(3.628 2.789)" fill="#afb9d2" stroke="#000" stroke-linecap="round" stroke-linejoin="round" stroke-width="1" stroke-dasharray="80 5"/>
      <path id="Path_1491011" data-name="Path 1491011" d="M33.554,59.346H32.437a26.175,26.175,0,0,1-6.027-.781l.111-.558,6.7-26.676,12.725,25a30.673,30.673,0,0,1-12.389,3.013" transform="translate(2.945 3.494)" fill="#d7deed" stroke="#000" stroke-linecap="round" stroke-linejoin="round" stroke-width="1" stroke-dasharray="80 5"/>
      <path id="Path_1491012" data-name="Path 1491012" d="M8.236,30.694H1.205C1.315,13.952,15.157-.111,31.9,0V30.807H8.236Z" transform="translate(0.134 0.001)" fill="#ef727a" stroke="#000" stroke-linecap="round" stroke-linejoin="round" stroke-width="1" stroke-dasharray="80 5"/>
      <path id="Path_1491013" data-name="Path 1491013" d="M64.848,34.054a25.791,25.791,0,0,0-.894-7.031,29.249,29.249,0,0,0-25.671-22.1,1.4,1.4,0,1,0-.335,2.79A26.644,26.644,0,0,1,61.276,27.692a24.831,24.831,0,0,1,.78,6.362v.335a26.682,26.682,0,0,1-53.24,2.344,1.405,1.405,0,0,0-2.791.335A29.358,29.358,0,0,0,28.237,62.851a29.688,29.688,0,0,0,7.479.893h.112A29.542,29.542,0,0,0,64.848,34.388Z" transform="translate(0.67 0.548)" fill="#57606f" stroke="#000" stroke-linecap="round" stroke-linejoin="round" stroke-width="1" stroke-dasharray="80 5"/>
      <path id="Path_1491014" data-name="Path 1491014" d="M19.533,59.338H1.449a1.451,1.451,0,0,1,0-2.9H19.533a1.451,1.451,0,0,1,0,2.9" transform="translate(0 6.293)" fill="#afb9d2" stroke="#000" stroke-linecap="round" stroke-linejoin="round" stroke-width="1" stroke-dasharray="80 5"/>
      <path id="Path_1491015" data-name="Path 1491015" d="M9.822,55.522H1.451a1.451,1.451,0,0,1,0-2.9H9.822a1.478,1.478,0,0,1,1.451,1.451,1.552,1.552,0,0,1-1.451,1.452" transform="translate(0 5.868)" fill="#afb9d2" stroke="#000" stroke-linecap="round" stroke-linejoin="round" stroke-width="1" stroke-dasharray="80 5"/>
      <path id="Path_1491016" data-name="Path 1491016" d="M60.591,59.338H46.638a1.451,1.451,0,0,1,0-2.9H60.591a1.478,1.478,0,0,1,1.452,1.451,1.657,1.657,0,0,1-1.452,1.452" transform="translate(5.039 6.293)" fill="#afb9d2" stroke="#000" stroke-linecap="round" stroke-linejoin="round" stroke-width="1" stroke-dasharray="80 5"/>
      <path id="Path_1491017" data-name="Path 1491017" d="M60.031,55.522H51.661a1.451,1.451,0,1,1,0-2.9h8.371a1.478,1.478,0,0,1,1.452,1.451,1.553,1.553,0,0,1-1.452,1.452" transform="translate(5.599 5.868)" fill="#afb9d2" stroke="#000" stroke-linecap="round" stroke-linejoin="round" stroke-width="1" stroke-dasharray="80 5"/>
    </g>
  </g>
</svg>
