<svg xmlns="http://www.w3.org/2000/svg" xmlns:xlink="http://www.w3.org/1999/xlink" width="118" height="118" viewBox="0 0 118 118">
  <defs>
    <filter id="Rectangle_411831" x="0" y="0" width="118" height="118" filterUnits="userSpaceOnUse">
      <feOffset dy="3" input="SourceAlpha"/>
      <feGaussianBlur stdDeviation="3" result="blur"/>
      <feFlood flood-opacity="0.161"/>
      <feComposite operator="in" in2="blur"/>
      <feComposite in="SourceGraphic"/>
    </filter>
  </defs>
  <g id="Group_1255727" data-name="Group 1255727" transform="translate(-791.781 -2537)">
    <g id="Group_1230590" data-name="Group 1230590" transform="translate(465 -1315)">
      <g transform="matrix(1, 0, 0, 1, 326.78, 3852)" filter="url(#Rectangle_411831)">
        <g id="Rectangle_411831-2" data-name="Rectangle 411831" transform="translate(9 6)" fill="#a4e0d4" stroke="#fff" stroke-width="2">
          <path d="M5,0H68a32,32,0,0,1,32,32V95a5,5,0,0,1-5,5H32A32,32,0,0,1,0,68V5A5,5,0,0,1,5,0Z" stroke="none"/>
          <path d="M5,1H68A31,31,0,0,1,99,32V95a4,4,0,0,1-4,4H32A31,31,0,0,1,1,68V5A4,4,0,0,1,5,1Z" fill="none"/>
        </g>
      </g>
    </g>
    <g id="Group_1255728" data-name="Group 1255728" transform="translate(823.434 2561.306)">
      <path id="Path_1490942" data-name="Path 1490942" d="M39.266,57.441H0V0H46.334V38.37a2.745,2.745,0,0,0-1.683-.561,2.712,2.712,0,0,0-1.907.785,1.075,1.075,0,0,1-1.009.225,1.572,1.572,0,0,0-1.01,0V10.435A4.789,4.789,0,0,1,35.9,5.61H10.546a4.789,4.789,0,0,1-4.824,4.825V47.008a4.789,4.789,0,0,1,4.824,4.824h25.13a2.752,2.752,0,0,0,2.02,2.356,1.109,1.109,0,0,1,.786.785,2.484,2.484,0,0,0,1.683,1.8l-.337.786Z" fill="#d7deed" stroke="#000" stroke-linecap="round" stroke-linejoin="round" stroke-width="1" stroke-dasharray="80 5"/>
      <path id="Path_1490943" data-name="Path 1490943" d="M44.772,50.67l2.58,6.956-7.179-2.469V51.792a3.654,3.654,0,0,0,1.569-.449c.113-.112.225-.112.338-.225a1.075,1.075,0,0,1,1.008-.225,2.27,2.27,0,0,0,1.234,0c.112,0,.225,0,.225-.111.112,0,.226,0,.226-.112" transform="translate(4.48 5.65)" fill="#da5359" stroke="#000" stroke-linecap="round" stroke-linejoin="round" stroke-width="1" stroke-dasharray="80 5"/>
      <path id="Path_1490944" data-name="Path 1490944" d="M36.531,50.776h0a.349.349,0,0,1,.225.111,2.27,2.27,0,0,0,1.234,0,1.077,1.077,0,0,1,1.01.226l.111.111a3.489,3.489,0,0,0,1.123.561c.225,0,.448.113.674.113v3.365l-7.293,2.469c.112-.449-.786,2.02,2.692-6.956,0-.112.112,0,.225,0" transform="translate(3.745 5.656)" fill="#ef727a" stroke="#000" stroke-linecap="round" stroke-linejoin="round" stroke-width="1" stroke-dasharray="80 5"/>
      <path id="Path_1490945" data-name="Path 1490945" d="M50.483,42.09a1.075,1.075,0,0,1-.225-1.009,2.913,2.913,0,0,0-1.907-3.367,1.106,1.106,0,0,1-.786-.785A2.806,2.806,0,0,0,44.2,35.023a1.077,1.077,0,0,1-1.01-.226,2.924,2.924,0,0,0-3.926,0,1.077,1.077,0,0,1-1.01.226,2.91,2.91,0,0,0-3.366,1.906,1.106,1.106,0,0,1-.785.785A2.81,2.81,0,0,0,32.2,41.08a1.078,1.078,0,0,1-.225,1.009,2.925,2.925,0,0,0,0,3.927,1.078,1.078,0,0,1,.225,1.009A2.81,2.81,0,0,0,34.1,50.392a1.106,1.106,0,0,1,.785.785,3.251,3.251,0,0,0,1.346,1.683,1.9,1.9,0,0,0,.561.225,2.571,2.571,0,0,0,2.02-.225,2.941,2.941,0,0,1,.56.674,4.6,4.6,0,0,0,1.01.561,2.81,2.81,0,0,0,.9.111,3.2,3.2,0,0,0,1.459-.448c.223-.225.56-.449.672-.786a3.243,3.243,0,0,0,2.02.225c.112,0,0,0,.225-.112a2.956,2.956,0,0,0,1.683-1.8,1.111,1.111,0,0,1,.785-.786,2.808,2.808,0,0,0,1.907-3.366,1.075,1.075,0,0,1,.225-1.009,2.858,2.858,0,0,0,.225-4.039" transform="translate(3.481 3.796)" fill="#fcd884" stroke="#000" stroke-linecap="round" stroke-linejoin="round" stroke-width="1" stroke-dasharray="80 5"/>
      <path id="Path_1490946" data-name="Path 1490946" d="M40.69,38.456a5.161,5.161,0,1,1-5.161,5.162,5.148,5.148,0,0,1,5.161-5.162" transform="translate(3.962 4.288)" fill="#eabf6a" stroke="#000" stroke-linecap="round" stroke-linejoin="round" stroke-width="1" stroke-dasharray="80 5"/>
      <path id="Path_1490947" data-name="Path 1490947" d="M35.214,5.047a4.789,4.789,0,0,0,4.824,4.825V38.255a2.165,2.165,0,0,0-1.122.337,2.866,2.866,0,0,0-1.346,1.682,1.109,1.109,0,0,1-.786.786,2.94,2.94,0,0,0-2.02,3.367,1.077,1.077,0,0,1-.223,1.009,2.921,2.921,0,0,0,0,3.926,1.078,1.078,0,0,1,.223,1.009,1.576,1.576,0,0,0,0,1.011H9.972a4.789,4.789,0,0,0-4.824-4.825V9.872A4.789,4.789,0,0,0,9.972,5.047Z" transform="translate(0.574 0.563)" fill="#ecf0f1" stroke="#000" stroke-linecap="round" stroke-linejoin="round" stroke-width="1" stroke-dasharray="80 5"/>
      <path id="Path_1490948" data-name="Path 1490948" d="M23.982,12.91H12.763a1.458,1.458,0,1,1,0-2.917H23.982a1.458,1.458,0,1,1,0,2.917" transform="translate(1.261 1.114)" fill="#57606f" stroke="#000" stroke-linecap="round" stroke-linejoin="round" stroke-width="1" stroke-dasharray="80 5"/>
      <path id="Path_1490949" data-name="Path 1490949" d="M25.012,16.645H16.6a1.458,1.458,0,1,1,0-2.917h8.414a1.485,1.485,0,0,1,1.458,1.459,1.565,1.565,0,0,1-1.458,1.457" transform="translate(1.688 1.531)" fill="#57606f" stroke="#000" stroke-linecap="round" stroke-linejoin="round" stroke-width="1" stroke-dasharray="80 5"/>
      <path id="Path_1490950" data-name="Path 1490950" d="M30.709,16.645H27.9a1.458,1.458,0,1,1,0-2.917h2.8a1.458,1.458,0,1,1,0,2.917" transform="translate(2.949 1.531)" fill="#57606f" stroke="#000" stroke-linecap="round" stroke-linejoin="round" stroke-width="1" stroke-dasharray="80 5"/>
      <path id="Path_1490951" data-name="Path 1490951" d="M25.857,23H9.028a1.459,1.459,0,0,1,0-2.918H25.857a1.485,1.485,0,0,1,1.458,1.459A1.566,1.566,0,0,1,25.857,23" transform="translate(0.844 2.24)" fill="#57606f" stroke="#000" stroke-linecap="round" stroke-linejoin="round" stroke-width="1" stroke-dasharray="80 5"/>
      <path id="Path_1490952" data-name="Path 1490952" d="M26.641,26.738H14.075a1.458,1.458,0,1,1,0-2.917H26.753a1.484,1.484,0,0,1,1.458,1.458,1.675,1.675,0,0,1-1.571,1.458" transform="translate(1.407 2.656)" fill="#57606f" stroke="#000" stroke-linecap="round" stroke-linejoin="round" stroke-width="1" stroke-dasharray="80 5"/>
      <path id="Path_1490953" data-name="Path 1490953" d="M32.251,30.573H14.075a1.458,1.458,0,0,1,0-2.917H32.363a1.485,1.485,0,0,1,1.458,1.459,1.674,1.674,0,0,1-1.571,1.457" transform="translate(1.407 3.084)" fill="#57606f" stroke="#000" stroke-linecap="round" stroke-linejoin="round" stroke-width="1" stroke-dasharray="80 5"/>
      <path id="Path_1490954" data-name="Path 1490954" d="M14.5,35.62H10.24a1.458,1.458,0,1,1,0-2.917H14.5a1.458,1.458,0,1,1,0,2.917" transform="translate(0.979 3.647)" fill="#57606f" stroke="#000" stroke-linecap="round" stroke-linejoin="round" stroke-width="1" stroke-dasharray="80 5"/>
      <path id="Path_1490955" data-name="Path 1490955" d="M26.224,35.62H17.81a1.458,1.458,0,1,1,0-2.917h8.414a1.458,1.458,0,1,1,0,2.917" transform="translate(1.823 3.647)" fill="#57606f" stroke="#000" stroke-linecap="round" stroke-linejoin="round" stroke-width="1" stroke-dasharray="80 5"/>
    </g>
  </g>
</svg>
