<svg xmlns="http://www.w3.org/2000/svg" xmlns:xlink="http://www.w3.org/1999/xlink" width="118" height="118" viewBox="0 0 118 118">
  <defs>
    <filter id="Rectangle_411831" x="0" y="0" width="118" height="118" filterUnits="userSpaceOnUse">
      <feOffset dy="3" input="SourceAlpha"/>
      <feGaussianBlur stdDeviation="3" result="blur"/>
      <feFlood flood-opacity="0.161"/>
      <feComposite operator="in" in2="blur"/>
      <feComposite in="SourceGraphic"/>
    </filter>
  </defs>
  <g id="Group_1255731" data-name="Group 1255731" transform="translate(-791.781 -2537)">
    <g id="Group_1230590" data-name="Group 1230590" transform="translate(465 -1315)">
      <g transform="matrix(1, 0, 0, 1, 326.78, 3852)" filter="url(#Rectangle_411831)">
        <g id="Rectangle_411831-2" data-name="Rectangle 411831" transform="translate(9 6)" fill="#a4e0d4" stroke="#fff" stroke-width="2">
          <path d="M5,0H68a32,32,0,0,1,32,32V95a5,5,0,0,1-5,5H32A32,32,0,0,1,0,68V5A5,5,0,0,1,5,0Z" stroke="none"/>
          <path d="M5,1H68A31,31,0,0,1,99,32V95a4,4,0,0,1-4,4H32A31,31,0,0,1,1,68V5A4,4,0,0,1,5,1Z" fill="none"/>
        </g>
      </g>
    </g>
    <g id="Group_1255732" data-name="Group 1255732" transform="translate(817.632 2560.129)">
      <path id="Path_1490966" data-name="Path 1490966" d="M33.941,60.356V53.77a5.025,5.025,0,0,1,3.571-4.8L42.759,47.3l5.47,3.46,6.139-3.46,4.687,1.563a5.064,5.064,0,0,1,3.46,4.8v6.585c-3.126.112-25.672.112-28.574.112" transform="translate(3.785 5.274)" fill="#86dcfd" stroke="#000" stroke-linecap="round" stroke-linejoin="round" stroke-width="1" stroke-dasharray="80 5"/>
      <path id="Path_1490967" data-name="Path 1490967" d="M0,60.356V53.77a5.025,5.025,0,0,1,3.571-4.8L8.818,47.3l5.47,3.46,6.139-3.46,4.687,1.563a5.218,5.218,0,0,1,3.348,4.911v6.586Z" transform="translate(0 5.274)" fill="#86dcfd" stroke="#000" stroke-linecap="round" stroke-linejoin="round" stroke-width="1" stroke-dasharray="80 5"/>
      <path id="Path_1490968" data-name="Path 1490968" d="M17.573,28.9V22.429a5.023,5.023,0,0,1,3.571-4.8l5.134-1.563,5.357,3.46,6.028-3.46L42.24,17.63a5.063,5.063,0,0,1,3.461,4.8v6.586c-3.8-.112-24.779-.112-28.128-.112" transform="translate(1.96 1.792)" fill="#ef727a" stroke="#000" stroke-linecap="round" stroke-linejoin="round" stroke-width="1" stroke-dasharray="80 5"/>
      <path id="Path_1490969" data-name="Path 1490969" d="M30.83,0A7.031,7.031,0,1,1,23.8,7.031,7,7,0,0,1,30.83,0" transform="translate(2.654)" fill="#ffd8a8" stroke="#000" stroke-linecap="round" stroke-linejoin="round" stroke-width="1" stroke-dasharray="80 5"/>
      <path id="Path_1490970" data-name="Path 1490970" d="M48.4,31.431a7.032,7.032,0,1,1-7.031,7.032A7,7,0,0,1,48.4,31.431" transform="translate(4.613 3.505)" fill="#ffd8a8" stroke="#000" stroke-linecap="round" stroke-linejoin="round" stroke-width="1" stroke-dasharray="80 5"/>
      <path id="Path_1490971" data-name="Path 1490971" d="M13.257,31.431a7.032,7.032,0,1,1-7.031,7.032,7,7,0,0,1,7.031-7.032" transform="translate(0.694 3.505)" fill="#ffd8a8" stroke="#000" stroke-linecap="round" stroke-linejoin="round" stroke-width="1" stroke-dasharray="80 5"/>
      <path id="Path_1490972" data-name="Path 1490972" d="M7.119,59.561V55.878a1.451,1.451,0,0,0-2.9,0v3.684h2.9Z" transform="translate(0.47 6.069)" fill="#6fbfd8" stroke="#000" stroke-linecap="round" stroke-linejoin="round" stroke-width="1" stroke-dasharray="80 5"/>
      <path id="Path_1490973" data-name="Path 1490973" d="M20.72,54.427a1.384,1.384,0,0,0-1.339,1.451v3.795h2.79V55.878a1.406,1.406,0,0,0-1.451-1.451" transform="translate(2.161 6.069)" fill="#6fbfd8" stroke="#000" stroke-linecap="round" stroke-linejoin="round" stroke-width="1" stroke-dasharray="80 5"/>
      <path id="Path_1490974" data-name="Path 1490974" d="M54.673,54.427h0a1.478,1.478,0,0,0-1.452,1.451v3.795h2.791V55.878a1.321,1.321,0,0,0-1.339-1.451" transform="translate(5.935 6.069)" fill="#6fbfd8" stroke="#000" stroke-linecap="round" stroke-linejoin="round" stroke-width="1" stroke-dasharray="80 5"/>
      <path id="Path_1490975" data-name="Path 1490975" d="M40.96,59.561V55.878a1.451,1.451,0,0,0-2.9,0v3.684h2.9Z" transform="translate(4.244 6.069)" fill="#6fbfd8" stroke="#000" stroke-linecap="round" stroke-linejoin="round" stroke-width="1" stroke-dasharray="80 5"/>
      <path id="Path_1490976" data-name="Path 1490976" d="M24.19,28.13V24.447a1.451,1.451,0,0,0-2.9,0V28.13h2.9Z" transform="translate(2.374 2.564)" fill="#da5359" stroke="#000" stroke-linecap="round" stroke-linejoin="round" stroke-width="1" stroke-dasharray="80 5"/>
      <path id="Path_1490977" data-name="Path 1490977" d="M37.8,23h0a1.478,1.478,0,0,0-1.452,1.452v3.795h2.79V24.448A1.384,1.384,0,0,0,37.8,23" transform="translate(4.053 2.564)" fill="#da5359" stroke="#000" stroke-linecap="round" stroke-linejoin="round" stroke-width="1" stroke-dasharray="80 5"/>
      <path id="Path_1490978" data-name="Path 1490978" d="M30.271,38.061a1.477,1.477,0,0,1-1.451-1.451V31.477a1.451,1.451,0,1,1,2.9,0v5.245a1.462,1.462,0,0,1-1.452,1.339" transform="translate(3.214 3.348)" fill="#232b3f" stroke="#000" stroke-linecap="round" stroke-linejoin="round" stroke-width="1" stroke-dasharray="80 5"/>
      <path id="Path_1490979" data-name="Path 1490979" d="M24.143,47.129a1.366,1.366,0,0,1-1-.447,1.416,1.416,0,0,1,0-2.01l3.46-3.459a1.421,1.421,0,0,1,2.01,2.008l-3.461,3.46a1.363,1.363,0,0,1-1,.447" transform="translate(2.533 4.549)" fill="#232b3f" stroke="#000" stroke-linecap="round" stroke-linejoin="round" stroke-width="1" stroke-dasharray="80 5"/>
      <path id="Path_1490980" data-name="Path 1490980" d="M36.73,47.118a1.36,1.36,0,0,1-1-.447l-3.349-3.348a1.421,1.421,0,0,1,2.01-2.01l3.459,3.46a1.416,1.416,0,0,1,0,2.01,2.161,2.161,0,0,1-1.116.335" transform="translate(3.564 4.56)" fill="#232b3f" stroke="#000" stroke-linecap="round" stroke-linejoin="round" stroke-width="1" stroke-dasharray="80 5"/>
      <path id="Path_1490985" data-name="Path 1490985" d="M30.606,44.343a4.8,4.8,0,1,1,4.8-4.8,4.764,4.764,0,0,1-4.8,4.8" transform="translate(2.878 3.874)" fill="#313a52" stroke="#000" stroke-linecap="round" stroke-linejoin="round" stroke-width="1" stroke-dasharray="80 5"/>
    </g>
  </g>
</svg>
