<svg xmlns="http://www.w3.org/2000/svg" xmlns:xlink="http://www.w3.org/1999/xlink" width="118" height="118" viewBox="0 0 118 118">
  <defs>
    <filter id="Rectangle_411831" x="0" y="0" width="118" height="118" filterUnits="userSpaceOnUse">
      <feOffset dy="3" input="SourceAlpha"/>
      <feGaussianBlur stdDeviation="3" result="blur"/>
      <feFlood flood-opacity="0.161"/>
      <feComposite operator="in" in2="blur"/>
      <feComposite in="SourceGraphic"/>
    </filter>
    <clipPath id="clip-path">
      <rect id="Rectangle_437010" data-name="Rectangle 437010" width="67.508" height="65.035" fill="none"/>
    </clipPath>
  </defs>
  <g id="Group_1259679" data-name="Group 1259679" transform="translate(-326.781 -3852)">
    <g transform="matrix(1, 0, 0, 1, 326.78, 3852)" filter="url(#Rectangle_411831)">
      <g id="Rectangle_411831-2" data-name="Rectangle 411831" transform="translate(9 6)" fill="#e8de49" stroke="#fff" stroke-width="2">
        <path d="M5,0H68a32,32,0,0,1,32,32V95a5,5,0,0,1-5,5H32A32,32,0,0,1,0,68V5A5,5,0,0,1,5,0Z" stroke="none"/>
        <path d="M5,1H68A31,31,0,0,1,99,32V95a4,4,0,0,1-4,4H32A31,31,0,0,1,1,68V5A4,4,0,0,1,5,1Z" fill="none"/>
      </g>
    </g>
    <g id="Group_1262011" data-name="Group 1262011" transform="translate(352.027 3875.483)">
      <rect id="Rectangle_437007" data-name="Rectangle 437007" width="11.462" height="5.665" transform="translate(41.605 58.01)" fill="#afb9d2"/>
      <path id="Path_1532526" data-name="Path 1532526" d="M43.151,31.865l5.731,22.66H37.42L31.46,26.2h10.2Z" transform="translate(4.184 3.485)" fill="#afb9d2"/>
      <g id="Group_1262010" data-name="Group 1262010" transform="translate(0 0)">
        <g id="Group_1262009" data-name="Group 1262009" clip-path="url(#clip-path)">
          <path id="Path_1532527" data-name="Path 1532527" d="M23.6,38.606h0a2.478,2.478,0,0,1-.917,2.039.112.112,0,0,0-.116.112l-.114.114c-.114.113-.229.113-.229.225h-.114a4.076,4.076,0,0,1-1.147.227,3.344,3.344,0,0,1-1.031-.227,2.476,2.476,0,0,1-.917-.567l-.114-.112a2.556,2.556,0,0,1-.688-1.813v-.341a2.427,2.427,0,0,1,1.031-1.7A2.565,2.565,0,0,1,20.5,36h.917a3.444,3.444,0,0,1,1.145.454.112.112,0,0,1,.116.112,2.684,2.684,0,0,1,1.031,1.7.416.416,0,0,0-.114.341" transform="translate(2.422 4.788)" fill="#afb9d2"/>
          <path id="Path_1532528" data-name="Path 1532528" d="M20.592,40.933l-2.865,2.606a2.693,2.693,0,0,1-4.126-.567,2.6,2.6,0,0,1,1.49-3.853L18.872,38.1v.227a3.445,3.445,0,0,0,.344,1.473c.114.113.229.34.343.452l.114.114a10.561,10.561,0,0,1,.918.567" transform="translate(1.758 5.068)" fill="#d7deed"/>
          <path id="Path_1532529" data-name="Path 1532529" d="M26.846,39.133a2.6,2.6,0,0,1,1.49,3.852,2.682,2.682,0,0,1-4.126.567l-2.865-2.6a.113.113,0,0,0,.116-.114h.114a.245.245,0,0,0,.229-.225l.114-.114a.111.111,0,0,0,.114-.112,3.572,3.572,0,0,0,.573-.681,3.1,3.1,0,0,0,.344-1.473V38Z" transform="translate(2.839 5.054)" fill="#d7deed"/>
          <path id="Path_1532530" data-name="Path 1532530" d="M20.962,30.4a2.539,2.539,0,0,1,2.522,3.172l-.918,3.739-.114-.113a2.048,2.048,0,0,0-1.145-.453h-.918a2.564,2.564,0,0,0-1.261.567l-.917-3.739A2.811,2.811,0,0,1,20.962,30.4" transform="translate(2.419 4.044)" fill="#d7deed"/>
          <rect id="Rectangle_437008" data-name="Rectangle 437008" width="21.548" height="5.665" transform="translate(12.951 16.882)" fill="#5b5a57"/>
          <rect id="Rectangle_437009" data-name="Rectangle 437009" width="10.086" height="5.665" transform="translate(53.066 58.01)" fill="#5b5a57"/>
          <path id="Path_1532531" data-name="Path 1532531" d="M40.932,51.2v5.665H5.058V51.2H40.932Z" transform="translate(0.673 6.81)" fill="#5b5a57"/>
          <path id="Path_1532532" data-name="Path 1532532" d="M50.374,31.2l7.106,22.66H47.509L41.778,31.2Z" transform="translate(5.557 4.15)" fill="#747371"/>
          <path id="Path_1532533" data-name="Path 1532533" d="M5.057,55.363,12.278,19.9H33.711l1.261,7.138,5.845,28.325H5.057Zm25.56-9.97a2.6,2.6,0,0,0-1.49-3.852l-3.782-1.02a2.68,2.68,0,0,0-1.032-1.7l.918-3.739a2.5,2.5,0,0,0-2.522-3.172,2.538,2.538,0,0,0-2.522,3.172l.918,3.739a2.68,2.68,0,0,0-1.032,1.7L16.29,41.54a2.6,2.6,0,0,0-1.49,3.852,2.682,2.682,0,0,0,4.126.567l2.865-2.606a3.377,3.377,0,0,0,1.031.227,3.429,3.429,0,0,0,1.147-.227.112.112,0,0,0-.114.113l2.865,2.606a2.566,2.566,0,0,0,3.9-.68" transform="translate(0.673 2.647)" fill="#747371"/>
          <path id="Path_1532534" data-name="Path 1532534" d="M57.642,1.227a5.665,5.665,0,1,1,0,11.33,5.862,5.862,0,0,1-1.49-.227,8.6,8.6,0,0,1-16.963.113h-.114a5.666,5.666,0,0,1-5.5-4.079,4.256,4.256,0,0,1-3.094,1.246,4.316,4.316,0,0,1-2.865-1.133,4.3,4.3,0,1,1-1.375-3.512,4.268,4.268,0,0,1,8.138-1.473A5.772,5.772,0,0,1,39.075,1a5.674,5.674,0,0,1,4.7,2.379,8.944,8.944,0,0,1,3.9-.906A8.249,8.249,0,0,1,52.6,4.059a5.7,5.7,0,0,1,5.043-2.833" transform="translate(2.529 0.133)" fill="#eff3f6"/>
          <path id="Path_1532535" data-name="Path 1532535" d="M5.233,58.411a1.509,1.509,0,0,1-1.49-1.473V51.273a1.49,1.49,0,0,1,2.98,0v5.665a1.509,1.509,0,0,1-1.49,1.473" transform="translate(0.498 6.624)"/>
          <path id="Path_1532536" data-name="Path 1532536" d="M48.942,56.071a1.373,1.373,0,0,1-1.375-1.02L40.689,27.746H31.635a1.473,1.473,0,1,1,0-2.946h10.2a1.373,1.373,0,0,1,1.375,1.02l7.221,28.325a1.341,1.341,0,0,1-1.031,1.7.461.461,0,0,1-.459.227" transform="translate(4.01 3.299)"/>
          <path id="Path_1532537" data-name="Path 1532537" d="M41.107,56.884H5.233a1.6,1.6,0,0,1-1.145-.567,2.162,2.162,0,0,1-.344-1.133l7.221-35.35a1.458,1.458,0,0,1,1.72-1.133,1.442,1.442,0,0,1,1.145,1.7L6.952,54.165H39.273l-5.5-26.626L32.511,20.4a1.5,1.5,0,0,1,1.145-1.7,1.519,1.519,0,0,1,1.72,1.133l1.261,7.025,5.845,28.325a1.018,1.018,0,0,1-.344,1.133,1.371,1.371,0,0,1-1.031.567" transform="translate(0.498 2.485)"/>
          <path id="Path_1532538" data-name="Path 1532538" d="M47.011,58.411a1.509,1.509,0,0,1-1.49-1.473V51.273a1.49,1.49,0,0,1,2.98,0v5.665a1.691,1.691,0,0,1-1.49,1.473" transform="translate(6.055 6.624)"/>
          <path id="Path_1532539" data-name="Path 1532539" d="M58.341,58.411a1.509,1.509,0,0,1-1.49-1.473V52.633H38.284v4.305a1.49,1.49,0,0,1-2.98,0V51.273a1.509,1.509,0,0,1,1.49-1.473H58.341a1.509,1.509,0,0,1,1.49,1.473v5.665a1.509,1.509,0,0,1-1.49,1.473" transform="translate(4.696 6.624)"/>
          <path id="Path_1532540" data-name="Path 1532540" d="M57.669,55.406a1.438,1.438,0,0,1-1.375-1.02l-6.876-21.64H41.852a1.473,1.473,0,1,1,0-2.946h8.6a1.6,1.6,0,0,1,1.375,1.02l7.221,22.66a1.481,1.481,0,0,1-.917,1.813.878.878,0,0,1-.459.113" transform="translate(5.368 3.964)"/>
          <path id="Path_1532541" data-name="Path 1532541" d="M33.039,22.211H11.606a1.509,1.509,0,0,1-1.49-1.473V15.073a1.509,1.509,0,0,1,1.49-1.473H33.039a1.509,1.509,0,0,1,1.49,1.473v5.665a1.509,1.509,0,0,1-1.49,1.473M12.981,19.378H31.664V16.546H12.981Z" transform="translate(1.346 1.809)"/>
          <path id="Path_1532542" data-name="Path 1532542" d="M65.9,57.746H1.49a1.473,1.473,0,1,1,0-2.946H66.018a1.508,1.508,0,0,1,1.489,1.473,1.7,1.7,0,0,1-1.6,1.473" transform="translate(0 7.289)"/>
          <path id="Path_1532543" data-name="Path 1532543" d="M27.308,27.746h-15.7a1.473,1.473,0,1,1,0-2.946h15.7a1.473,1.473,0,1,1,0,2.946" transform="translate(1.346 3.299)"/>
          <path id="Path_1532544" data-name="Path 1532544" d="M20.922,42.435a3.2,3.2,0,0,1-1.49-.34,4.117,4.117,0,0,1-1.375-.906,1.423,1.423,0,0,1,0-2.038,1.465,1.465,0,0,1,2.063,0,1.578,1.578,0,0,0,.458.339,1.271,1.271,0,0,0,.918,0,1.481,1.481,0,0,1,1.949.567,1.445,1.445,0,0,1-.573,1.927.111.111,0,0,0-.114.112,4.8,4.8,0,0,1-1.834.34" transform="translate(2.344 5.151)"/>
          <path id="Path_1532545" data-name="Path 1532545" d="M19.058,42.038a1.257,1.257,0,0,1-1.033-.452,4.035,4.035,0,0,1-1.031-2.72v-.453a4.068,4.068,0,0,1,1.49-2.606,4.4,4.4,0,0,1,1.949-.906h.229a1.415,1.415,0,0,1,1.49,1.36,1.482,1.482,0,0,1-1.375,1.473.879.879,0,0,0-.572.227,1.148,1.148,0,0,0-.459.794v.112a1.021,1.021,0,0,0,.344.793,1.431,1.431,0,0,1-.114,2.039,1.314,1.314,0,0,1-.917.34" transform="translate(2.26 4.642)"/>
          <path id="Path_1532546" data-name="Path 1532546" d="M20.6,37.633a1.37,1.37,0,0,1-1.375-1.247,1.413,1.413,0,0,1,1.26-1.585h.23a1.418,1.418,0,1,1,.114,2.833Z" transform="translate(2.555 4.629)"/>
          <path id="Path_1532547" data-name="Path 1532547" d="M21.026,37.633H20.8a1.418,1.418,0,1,1,.114-2.833h.23a1.412,1.412,0,0,1,1.26,1.585,1.459,1.459,0,0,1-1.375,1.247" transform="translate(2.583 4.629)"/>
          <path id="Path_1532548" data-name="Path 1532548" d="M22.261,38.086a1.675,1.675,0,0,1-.8-.227.879.879,0,0,0-.573-.225,1.391,1.391,0,0,1-1.261-1.474A1.415,1.415,0,0,1,21.115,34.8h.458a5.413,5.413,0,0,1,1.72.679,1.325,1.325,0,0,1,.343,1.926,1.619,1.619,0,0,1-1.375.68" transform="translate(2.61 4.629)"/>
          <path id="Path_1532549" data-name="Path 1532549" d="M22.22,42.218a1.6,1.6,0,0,1-1.145-.567,1.559,1.559,0,0,1,.229-2.039,1.4,1.4,0,0,0,.459-.906v-.113A1.146,1.146,0,0,0,21.3,37.8a1.531,1.531,0,0,1-.229-2.039,1.575,1.575,0,0,1,2.063-.227,4.064,4.064,0,0,1,1.489,2.606v.453a4.026,4.026,0,0,1-1.374,3.059l-.114.113a1.048,1.048,0,0,1-.918.453" transform="translate(2.765 4.689)"/>
          <path id="Path_1532550" data-name="Path 1532550" d="M21.916,42.052a1.376,1.376,0,0,1-.688-2.606.111.111,0,0,0,.114-.112,1.59,1.59,0,0,1,2.063.225,1.548,1.548,0,0,1-.229,2.041.6.6,0,0,1-.459.225,2.94,2.94,0,0,1-.8.227" transform="translate(2.726 5.195)"/>
          <path id="Path_1532551" data-name="Path 1532551" d="M22.686,38.957a1.312,1.312,0,0,1-.917-.341c-.229-.112-.343-.225-.573-.225h-.114a.887.887,0,0,0-.573.225,1.255,1.255,0,0,1-1.261.227,1.234,1.234,0,0,1-.917-.905v-.113l-.917-3.74a3.633,3.633,0,0,1,.8-3.4,4.041,4.041,0,0,1,6.418,0,4.136,4.136,0,0,1,.8,3.4l-1.375,3.74a1.385,1.385,0,0,1-.917,1.019.69.69,0,0,1-.459.114m-1.031-3.4h0l.573-2.153A1.15,1.15,0,0,0,22,32.385a1.156,1.156,0,0,0-1.834,0,1.147,1.147,0,0,0-.23,1.021l.573,2.153h1.147" transform="translate(2.299 3.871)"/>
          <path id="Path_1532552" data-name="Path 1532552" d="M26.307,45.825a3.581,3.581,0,0,1-2.752-1.133l-2.864-2.607a1.686,1.686,0,0,1-.459-1.245,1.258,1.258,0,0,1,.8-1.021h.114l.114-.112.23-.227c.114-.228.229-.453.114-.567V38.8a1.547,1.547,0,0,1,.458-1.36,1.228,1.228,0,0,1,1.375-.227l3.669,1.02a3.944,3.944,0,0,1,2.635,2.379,4.179,4.179,0,0,1-.229,3.512,3.785,3.785,0,0,1-3.209,1.7m-2.522-4.759,1.6,1.473a1.536,1.536,0,0,0,.8.34,1.211,1.211,0,0,0,1.032-.567,1.092,1.092,0,0,0,.114-1.02,1.205,1.205,0,0,0-.8-.68l-2.178-.567c-.116.227-.116.339-.23.567a.609.609,0,0,1-.343.453" transform="translate(2.691 4.934)"/>
          <path id="Path_1532553" data-name="Path 1532553" d="M16.059,45.857a4.2,4.2,0,0,1-3.552-2.041,3.827,3.827,0,0,1-.23-3.512,3.939,3.939,0,0,1,2.637-2.378L18.7,36.905a2,2,0,0,1,1.375.227,1.449,1.449,0,0,1,.459,1.361V38.6a.841.841,0,0,0,.114.567c0,.113.114.113.114.227.114.113.343.228.459.34a1.213,1.213,0,0,1,.8,1.021A1.34,1.34,0,0,1,21.561,42L18.7,44.61a3.276,3.276,0,0,1-2.637,1.247m1.834-5.779-2.178.567a1.207,1.207,0,0,0-.8.681,1.09,1.09,0,0,0,.114,1.019,1.206,1.206,0,0,0,1.031.567,1.248,1.248,0,0,0,.8-.34l1.6-1.473a2.486,2.486,0,0,1-.344-.567.86.86,0,0,0-.229-.453" transform="translate(1.591 4.903)"/>
          <path id="Path_1532554" data-name="Path 1532554" d="M47.847,21.187a9.957,9.957,0,0,1-9.628-7.138,7.413,7.413,0,0,1-5.043-3.286,6.3,6.3,0,0,1-2.521.567,6.559,6.559,0,0,1-2.063-.34,5.718,5.718,0,1,1-5.157-8.158,6.559,6.559,0,0,1,2.063.34A5.617,5.617,0,0,1,30.654,0a5.765,5.765,0,0,1,4.012,1.586A7.248,7.248,0,0,1,39.251,0a7.454,7.454,0,0,1,5.043,2.039,9.431,9.431,0,0,1,3.553-.68,9.165,9.165,0,0,1,4.584,1.133,7.19,7.19,0,1,1,5.5,11.783h-.459a10.412,10.412,0,0,1-9.627,6.911m-8.482-9.97A1.357,1.357,0,0,1,40.74,12.35a7.133,7.133,0,0,0,7.106,5.892,7.227,7.227,0,0,0,7.106-6.118,1.649,1.649,0,0,1,.687-1.02,1.427,1.427,0,0,1,1.147-.227,3.946,3.946,0,0,0,1.147.113,4.306,4.306,0,1,0,0-8.611A4.265,4.265,0,0,0,54.15,4.645a1.781,1.781,0,0,1-.917.68A1.426,1.426,0,0,1,52.086,5.1a6.916,6.916,0,0,0-4.125-1.36,6.846,6.846,0,0,0-3.324.793A1.446,1.446,0,0,1,42.8,4.079a4.205,4.205,0,0,0-3.439-1.813,4.415,4.415,0,0,0-3.553,1.813,1.231,1.231,0,0,1-1.261.567,1.379,1.379,0,0,1-1.145-.793,2.8,2.8,0,0,0-2.637-1.586A2.859,2.859,0,0,0,27.9,4.872a1.326,1.326,0,0,1-.917,1.246,1.454,1.454,0,0,1-1.49-.227,3.136,3.136,0,0,0-1.949-.68,2.833,2.833,0,1,0,0,5.665,2.859,2.859,0,0,0,2.865-2.606,1.328,1.328,0,0,1,.917-1.246,1.419,1.419,0,0,1,1.49.227,3.136,3.136,0,0,0,1.949.68,2.886,2.886,0,0,0,2.063-.906,1.267,1.267,0,0,1,1.375-.34A1.346,1.346,0,0,1,35.239,7.7a4.292,4.292,0,0,0,4.126,3.059v.453h0" transform="translate(2.355 0)"/>
        </g>
      </g>
    </g>
  </g>
</svg>
