<svg xmlns="http://www.w3.org/2000/svg" xmlns:xlink="http://www.w3.org/1999/xlink" width="118" height="118" viewBox="0 0 118 118">
  <defs>
    <filter id="Rectangle_411831" x="0" y="0" width="118" height="118" filterUnits="userSpaceOnUse">
      <feOffset dy="3" input="SourceAlpha"/>
      <feGaussianBlur stdDeviation="3" result="blur"/>
      <feFlood flood-opacity="0.161"/>
      <feComposite operator="in" in2="blur"/>
      <feComposite in="SourceGraphic"/>
    </filter>
    <clipPath id="clip-path">
      <rect id="Rectangle_437026" data-name="Rectangle 437026" width="59.53" height="65.892" fill="none"/>
    </clipPath>
  </defs>
  <g id="Group_1259681" data-name="Group 1259681" transform="translate(-326.781 -3852)">
    <g transform="matrix(1, 0, 0, 1, 326.78, 3852)" filter="url(#Rectangle_411831)">
      <g id="Rectangle_411831-2" data-name="Rectangle 411831" transform="translate(9 6)" fill="#e8de49" stroke="#fff" stroke-width="2">
        <path d="M5,0H68a32,32,0,0,1,32,32V95a5,5,0,0,1-5,5H32A32,32,0,0,1,0,68V5A5,5,0,0,1,5,0Z" stroke="none"/>
        <path d="M5,1H68A31,31,0,0,1,99,32V95a4,4,0,0,1-4,4H32A31,31,0,0,1,1,68V5A4,4,0,0,1,5,1Z" fill="none"/>
      </g>
    </g>
    <g id="Group_1262018" data-name="Group 1262018" transform="translate(356.016 3875.054)">
      <g id="Group_1262017" data-name="Group 1262017" transform="translate(0 0)" clip-path="url(#clip-path)">
        <path id="Path_1532619" data-name="Path 1532619" d="M45.149,9.7H36.661V1.3c2.6,2.577,5.771,5.827,8.488,8.4" transform="translate(4.422 0.157)" fill="#c4dae8"/>
        <path id="Path_1532620" data-name="Path 1532620" d="M40.924,58.027v5.6H1.313V7.6H6.972V58.027Z" transform="translate(0.158 0.917)" fill="#c4dae8"/>
        <path id="Path_1532621" data-name="Path 1532621" d="M48.8,9.7V58.787H6.363V1.3H40.315V9.7Z" transform="translate(0.767 0.157)" fill="#e2f1fc"/>
        <path id="Path_1532622" data-name="Path 1532622" d="M25.459,6.3c0,11.318.453,9.749-5.546,15.913H16.858c-6-6.163-5.545-4.482-5.545-15.913Z" transform="translate(1.364 0.76)" fill="#2195f2"/>
        <path id="Path_1532623" data-name="Path 1532623" d="M31.769,41.3A1.457,1.457,0,1,1,30.3,42.757,1.491,1.491,0,0,1,31.769,41.3" transform="translate(3.654 4.981)"/>
        <path id="Path_1532624" data-name="Path 1532624" d="M48.961,60.289H6.52a1.492,1.492,0,0,1-1.471-1.457V1.457A1.492,1.492,0,0,1,6.52,0H40.473a1.389,1.389,0,0,1,1.019.448l8.489,8.4a1.661,1.661,0,0,1,.453,1.009V58.944a1.673,1.673,0,0,1-1.471,1.345m-41.083-2.8H47.49V10.422l-7.7-7.62H7.879Z" transform="translate(0.609 0)"/>
        <path id="Path_1532625" data-name="Path 1532625" d="M41.083,65.144H1.471A1.491,1.491,0,0,1,0,63.687V7.657A1.491,1.491,0,0,1,1.471,6.2H7.13a1.457,1.457,0,1,1,0,2.914H2.83V62.343H39.611V58.084a1.471,1.471,0,0,1,2.943,0v5.6a1.671,1.671,0,0,1-1.471,1.457" transform="translate(0 0.748)"/>
        <path id="Path_1532626" data-name="Path 1532626" d="M45.307,11.318H36.819a1.491,1.491,0,0,1-1.471-1.457v-8.4a1.471,1.471,0,0,1,2.943,0v7.06H45.42a1.492,1.492,0,0,1,1.471,1.457,1.937,1.937,0,0,1-1.585,1.345" transform="translate(4.263 0)"/>
        <path id="Path_1532627" data-name="Path 1532627" d="M29.9,44.114H11.57a1.457,1.457,0,1,1,0-2.914H29.9a1.457,1.457,0,1,1,0,2.914" transform="translate(1.218 4.969)"/>
        <path id="Path_1532628" data-name="Path 1532628" d="M29.149,40.414H17.832a1.457,1.457,0,1,1,0-2.914H29.149a1.457,1.457,0,1,1,0,2.914" transform="translate(1.973 4.523)"/>
        <path id="Path_1532629" data-name="Path 1532629" d="M42.694,36.614H11.571a1.457,1.457,0,1,1,0-2.914H42.694a1.491,1.491,0,0,1,1.471,1.457,1.574,1.574,0,0,1-1.471,1.457" transform="translate(1.218 4.065)"/>
        <path id="Path_1532630" data-name="Path 1532630" d="M42.694,47.914H11.571a1.457,1.457,0,1,1,0-2.914H42.694a1.491,1.491,0,0,1,1.471,1.457,1.671,1.671,0,0,1-1.471,1.457" transform="translate(1.218 5.428)"/>
        <path id="Path_1532631" data-name="Path 1532631" d="M48.13,37.066a1.491,1.491,0,0,1-1.471-1.457V20.257a1.471,1.471,0,0,1,2.943,0V35.609a1.491,1.491,0,0,1-1.471,1.457" transform="translate(5.628 2.268)"/>
        <path id="Path_1532632" data-name="Path 1532632" d="M51.968,41.318A1.491,1.491,0,0,1,50.5,39.861v-8.4a1.471,1.471,0,0,1,2.943,0v8.4a1.671,1.671,0,0,1-1.471,1.457" transform="translate(6.091 3.619)"/>
        <path id="Path_1532633" data-name="Path 1532633" d="M20.16,23.714H17.1a1.238,1.238,0,0,1-1.019-.448c-.566-.56-1.019-1.121-1.471-1.57-4.3-4.369-4.414-4.705-4.414-13V6.457A1.49,1.49,0,0,1,11.671,5H25.818a1.49,1.49,0,0,1,1.471,1.457V8.7c0,8.293-.113,8.74-4.413,13-.453.449-.905,1.01-1.471,1.57a2.41,2.41,0,0,1-1.245.448m-2.49-2.8h1.924l1.132-1.121c1.924-1.905,2.83-2.8,3.169-4.035s.34-3.137.34-7.059V7.8H12.916v.9c0,3.81,0,5.714.453,7.059.34,1.234,1.245,2.017,3.169,4.035l1.132,1.121" transform="translate(1.23 0.603)"/>
        <path id="Path_1532634" data-name="Path 1532634" d="M40.721,19.114H27.931a1.457,1.457,0,1,1,0-2.914h12.79a1.491,1.491,0,0,1,1.471,1.457,1.671,1.671,0,0,1-1.471,1.457" transform="translate(3.191 1.954)"/>
        <path id="Path_1532635" data-name="Path 1532635" d="M40.721,22.914H27.931a1.457,1.457,0,1,1,0-2.914h12.79a1.491,1.491,0,0,1,1.471,1.457,1.671,1.671,0,0,1-1.471,1.457" transform="translate(3.191 2.412)"/>
        <path id="Path_1532636" data-name="Path 1532636" d="M40.721,26.614H27.931a1.457,1.457,0,1,1,0-2.914h12.79a1.491,1.491,0,0,1,1.471,1.457,1.671,1.671,0,0,1-1.471,1.457" transform="translate(3.191 2.859)"/>
        <path id="Path_1532637" data-name="Path 1532637" d="M40.721,30.414H27.931a1.457,1.457,0,1,1,0-2.914h12.79a1.491,1.491,0,0,1,1.471,1.457,1.671,1.671,0,0,1-1.471,1.457" transform="translate(3.191 3.317)"/>
      </g>
    </g>
  </g>
</svg>
