<svg xmlns="http://www.w3.org/2000/svg" xmlns:xlink="http://www.w3.org/1999/xlink" width="118" height="118" viewBox="0 0 118 118">
  <defs>
    <filter id="Rectangle_411831" x="0" y="0" width="118" height="118" filterUnits="userSpaceOnUse">
      <feOffset dy="3" input="SourceAlpha"/>
      <feGaussianBlur stdDeviation="3" result="blur"/>
      <feFlood flood-opacity="0.161"/>
      <feComposite operator="in" in2="blur"/>
      <feComposite in="SourceGraphic"/>
    </filter>
  </defs>
  <g id="Group_1240923" data-name="Group 1240923" transform="translate(-326.781 -3852)">
    <g transform="matrix(1, 0, 0, 1, 326.78, 3852)" filter="url(#Rectangle_411831)">
      <g id="Rectangle_411831-2" data-name="Rectangle 411831" transform="translate(9 6)" fill="#e8de49" stroke="#fff" stroke-width="2">
        <path d="M5,0H68a32,32,0,0,1,32,32V95a5,5,0,0,1-5,5H32A32,32,0,0,1,0,68V5A5,5,0,0,1,5,0Z" stroke="none"/>
        <path d="M5,1H68A31,31,0,0,1,99,32V95a4,4,0,0,1-4,4H32A31,31,0,0,1,1,68V5A4,4,0,0,1,5,1Z" fill="none"/>
      </g>
    </g>
    <g id="guard_4009133" transform="translate(332.151 3871.041)">
      <g id="Group_1234972" data-name="Group 1234972" transform="translate(73.719 59.274)">
        <path id="Path_1244430" data-name="Path 1244430" d="M400.387,443.712H388.465v-9.648h12.6v8.965A.683.683,0,0,1,400.387,443.712Z" transform="translate(-388.465 -434.064)" fill="#ffcbbe"/>
      </g>
      <path id="Path_1244431" data-name="Path 1244431" d="M448.953,434.064v8.965a.683.683,0,0,1-.683.683h3.755a.683.683,0,0,0,.683-.683v-8.965Z" transform="translate(-366.384 -374.79)" fill="#eaac9d"/>
      <g id="Group_1234973" data-name="Group 1234973" transform="translate(24.936 59.274)">
        <path id="Path_1244432" data-name="Path 1244432" d="M43.835,443.712H31.913a.683.683,0,0,1-.683-.683v-8.965h12.6Z" transform="translate(-31.23 -434.064)" fill="#ffcbbe"/>
      </g>
      <g id="Group_1234974" data-name="Group 1234974" transform="translate(24.936 37.499)">
        <path id="Path_1244433" data-name="Path 1244433" d="M92.618,298.465H31.23v-4.747A19.118,19.118,0,0,1,50.348,274.6H73.5a19.118,19.118,0,0,1,19.118,19.118Z" transform="translate(-31.23 -274.6)" fill="#407093"/>
      </g>
      <path id="Path_1244434" data-name="Path 1244434" d="M317.025,274.6H313.27a19.118,19.118,0,0,1,19.118,19.118v4.747h3.755v-4.747C336.857,282.029,327.584,274.6,317.025,274.6Z" transform="translate(-249.819 -237.101)" fill="#365e7d"/>
      <g id="Group_1234975" data-name="Group 1234975" transform="translate(47.021 26.306)">
        <path id="Path_1244435" data-name="Path 1244435" d="M203.346,211.8h-3.563a6.828,6.828,0,0,1-6.828-6.828V192.641h17.219v12.332A6.828,6.828,0,0,1,203.346,211.8Z" transform="translate(-192.955 -192.641)" fill="#eaac9d"/>
      </g>
      <g id="Group_1234976" data-name="Group 1234976" transform="translate(53.808 26.306)">
        <path id="Path_1244436" data-name="Path 1244436" d="M249.446,192.64v12.371a6.789,6.789,0,0,1-6.787,6.789h3.6a6.828,6.828,0,0,0,6.828-6.828V192.64Z" transform="translate(-242.659 -192.64)" fill="#df9380"/>
      </g>
      <g id="Group_1234977" data-name="Group 1234977" transform="translate(43.31 6.833)">
        <path id="Path_1244437" data-name="Path 1244437" d="M186.7,75.634l-4.2,3.891a6.476,6.476,0,0,1-8.806,0l-4.2-3.891a11.619,11.619,0,0,1-3.72-8.521V50.039h24.639V67.113A11.618,11.618,0,0,1,186.7,75.634Z" transform="translate(-165.782 -50.039)" fill="#ffcbbe"/>
      </g>
      <g id="Group_1234978" data-name="Group 1234978" transform="translate(67.305 17.29)">
        <path id="Path_1244438" data-name="Path 1244438" d="M342.691,135.319h-.043a1.157,1.157,0,0,1-1.157-1.157v-4.632a2.917,2.917,0,0,1,2.917-2.917,1.791,1.791,0,0,1,1.791,1.791v3.406A3.508,3.508,0,0,1,342.691,135.319Z" transform="translate(-341.491 -126.614)" fill="#ffcbbe"/>
      </g>
      <g id="Group_1234979" data-name="Group 1234979" transform="translate(67.305 17.29)">
        <path id="Path_1244439" data-name="Path 1244439" d="M342.691,135.319h-.043a1.157,1.157,0,0,1-1.157-1.157v-4.632a2.917,2.917,0,0,1,2.917-2.917,1.791,1.791,0,0,1,1.791,1.791v3.406A3.508,3.508,0,0,1,342.691,135.319Z" transform="translate(-341.491 -126.614)" fill="#eaac9d"/>
      </g>
      <g id="Group_1234980" data-name="Group 1234980" transform="translate(39.55 17.29)">
        <path id="Path_1244440" data-name="Path 1244440" d="M141.752,135.319h.043a1.157,1.157,0,0,0,1.157-1.157v-4.632a2.917,2.917,0,0,0-2.917-2.917,1.791,1.791,0,0,0-1.791,1.791v3.406A3.507,3.507,0,0,0,141.752,135.319Z" transform="translate(-138.245 -126.614)" fill="#ffcbbe"/>
      </g>
      <g id="Group_1234981" data-name="Group 1234981" transform="translate(61.22 6.833)">
        <path id="Path_1244441" data-name="Path 1244441" d="M299.964,50.039V69.9a13.513,13.513,0,0,1-3.03,8.526l3.01-2.79a11.619,11.619,0,0,0,3.72-8.521V50.039Z" transform="translate(-296.934 -50.039)" fill="#eaac9d"/>
      </g>
      <g id="Group_1234982" data-name="Group 1234982" transform="translate(42.127 0.995)">
        <path id="Path_1244442" data-name="Path 1244442" d="M184.125,17.372V13.416A6.128,6.128,0,0,0,178,7.288H163.247a6.128,6.128,0,0,0-6.128,6.128v3.956Z" transform="translate(-157.119 -7.288)" fill="#365e7d"/>
      </g>
      <g id="Group_1234983" data-name="Group 1234983" transform="translate(59.001 0.995)">
        <path id="Path_1244443" data-name="Path 1244443" d="M284.691,7.287h-4a6.128,6.128,0,0,1,6.128,6.128v3.956h4V13.415A6.128,6.128,0,0,0,284.691,7.287Z" transform="translate(-280.687 -7.287)" fill="#2b4d66"/>
      </g>
      <g id="Group_1234984" data-name="Group 1234984" transform="translate(34.756 36)">
        <path id="Path_1244444" data-name="Path 1244444" d="M136.321,265.073v3.8a8.967,8.967,0,0,1-2.625,6.339l-8.658,8.661a1.447,1.447,0,0,1-2.046,0l-8.658-8.661a8.966,8.966,0,0,1-2.625-6.339v-3.8a1.447,1.447,0,0,0-1.447-1.447h-5.674a1.447,1.447,0,0,0-1.447,1.447v31.475h41.748V265.073a1.447,1.447,0,0,0-1.447-1.447h-5.674a1.447,1.447,0,0,0-1.447,1.447Z" transform="translate(-103.14 -263.626)" fill="#f6e266"/>
      </g>
      <g id="Group_1234986" data-name="Group 1234986" transform="translate(71.024 36)">
        <g id="Group_1234985" data-name="Group 1234985">
          <path id="Path_1244445" data-name="Path 1244445" d="M372.761,263.626h-4.034a1.447,1.447,0,0,1,1.447,1.447v31.475h4.034V265.073A1.447,1.447,0,0,0,372.761,263.626Z" transform="translate(-368.727 -263.626)" fill="#f1d333"/>
        </g>
      </g>
      <g id="Group_1234987" data-name="Group 1234987" transform="translate(29.691 52.321)">
        <path id="Path_1244446" data-name="Path 1244446" d="M76.108,399.743H68.97a2.919,2.919,0,0,1-2.919-2.919V386.061a2.919,2.919,0,0,1,2.919-2.919h7.138a3,3,0,0,1,3,3v10.593A3,3,0,0,1,76.108,399.743Z" transform="translate(-66.051 -383.142)" fill="#365e7d"/>
      </g>
      <path id="Path_1244447" data-name="Path 1244447" d="M122.134,383.141h-2.778a3,3,0,0,1,3,3v10.593a3,3,0,0,1-3,3h2.778a3,3,0,0,0,3-3V386.145A3,3,0,0,0,122.134,383.141Z" transform="translate(-82.385 -330.82)" fill="#2b4d66"/>
      <g id="Group_1234988" data-name="Group 1234988" transform="translate(61.52 58.573)">
        <path id="Path_1244448" data-name="Path 1244448" d="M309.767,434.508h-9.821a.819.819,0,0,1-.819-.819v-3.942a.819.819,0,0,1,.819-.819h9.821a.819.819,0,0,1,.819.819v3.942A.819.819,0,0,1,309.767,434.508Z" transform="translate(-299.127 -428.927)" fill="#f6f1f1"/>
      </g>
      <path id="Path_1244449" data-name="Path 1244449" d="M309.767,428.926h-1.851v2.091a.819.819,0,0,1-.819.819h-7.97v1.851a.819.819,0,0,0,.819.819h9.821a.819.819,0,0,0,.819-.819v-3.942A.819.819,0,0,0,309.767,428.926Z" transform="translate(-237.607 -370.353)" fill="#e2dfe2"/>
      <g id="Group_1234989" data-name="Group 1234989" transform="translate(42.127 10.202)">
        <path id="Path_1244450" data-name="Path 1244450" d="M157.119,74.71V83a1.506,1.506,0,0,0,1.506,1.506h.129a12.144,12.144,0,0,0,6.58-2,9.768,9.768,0,0,1,10.577,0,12.144,12.144,0,0,0,6.58,2h.129A1.506,1.506,0,0,0,184.125,83V74.71Z" transform="translate(-157.119 -74.71)" fill="#407093"/>
      </g>
      <g id="Group_1234991" data-name="Group 1234991" transform="translate(64.61 10.202)">
        <g id="Group_1234990" data-name="Group 1234990">
          <path id="Path_1244451" data-name="Path 1244451" d="M322.28,74.71V83a1.5,1.5,0,0,1-.519,1.136,11.6,11.6,0,0,0,2.888.37h.129A1.506,1.506,0,0,0,326.284,83V74.71Z" transform="translate(-321.761 -74.71)" fill="#365e7d"/>
        </g>
      </g>
      <g id="Group_1234992" data-name="Group 1234992" transform="translate(51.597 4.098)">
        <path id="Path_1244452" data-name="Path 1244452" d="M234.528,33.149c0,1.6-2.079,4.021-3.252,5.26a1.076,1.076,0,0,1-1.564,0c-1.173-1.239-3.252-3.661-3.252-5.26,0-2.228,1.806-3.137,4.034-3.137S234.528,30.921,234.528,33.149Z" transform="translate(-226.461 -30.012)" fill="#f6e266"/>
      </g>
      <g id="Group_1234993" data-name="Group 1234993" transform="translate(53.937 4.098)">
        <path id="Path_1244453" data-name="Path 1244453" d="M245.3,30.012c-.089,0-.176,0-.264,0a2.75,2.75,0,0,1,1.421,2.553c0,1.429-1.66,3.515-2.85,4.827.327.383.643.729.911,1.012a1.076,1.076,0,0,0,1.564,0c1.173-1.239,3.252-3.661,3.252-5.26C249.329,30.921,247.523,30.012,245.3,30.012Z" transform="translate(-243.602 -30.012)" fill="#f1d333"/>
      </g>
      <g id="Group_1234994" data-name="Group 1234994" transform="translate(23.941 0)">
        <path id="Path_1244454" data-name="Path 1244454" d="M84.648,45.611a1,1,0,0,0-1.706,1.025,16.745,16.745,0,0,1,2.387,8.629v5.1H77.5V41.076a16.838,16.838,0,0,1,2.592,2.013,1,1,0,1,0,1.369-1.445A18.8,18.8,0,0,0,77.5,38.771V37.447a2.444,2.444,0,0,0-2.442-2.442H69.383a2.445,2.445,0,0,0-2.252,1.5h-1.9V32.841a12.658,12.658,0,0,0,3.325-5.852,4.507,4.507,0,0,0,4.448-4.5V19.081A2.819,2.819,0,0,0,70.128,16.3V7.123A7.131,7.131,0,0,0,63,0H53.467a1,1,0,1,0,0,1.99H63a5.139,5.139,0,0,1,5.133,5.133v2.961h-8.52a5.638,5.638,0,0,0,1.041-2.849c0-2.549-1.927-4.132-5.029-4.132S50.6,4.687,50.6,7.235a5.638,5.638,0,0,0,1.041,2.849h-8.52V7.123A5.139,5.139,0,0,1,48.255,1.99h.5a1,1,0,0,0,0-1.99h-.5a7.131,7.131,0,0,0-7.123,7.123v9.182a2.788,2.788,0,0,0-2.577,2.776v3.406A4.508,4.508,0,0,0,42.7,26.974a12.659,12.659,0,0,0,3.328,5.867V36.5h-1.9a2.445,2.445,0,0,0-2.252-1.5H36.2a2.444,2.444,0,0,0-2.442,2.442v1.324a18.708,18.708,0,0,0-9.82,16.495V68.259A1.66,1.66,0,0,0,25.6,69.917H39.834A3.918,3.918,0,0,0,43.748,66V55.239a3.92,3.92,0,0,0-3.184-3.844V45.336a1,1,0,0,0-1.99,0v5.99H35.751V37.447A.452.452,0,0,1,36.2,37h5.674a.452.452,0,0,1,.452.452v3.8a9.9,9.9,0,0,0,2.916,7.043L53.9,56.949a2.436,2.436,0,0,0,.732.5V67.927H46.741a1,1,0,1,0,0,1.99H85.66a1.66,1.66,0,0,0,1.658-1.658V55.265a18.731,18.731,0,0,0-2.671-9.655ZM25.931,62.358H28.7v3.728a3.808,3.808,0,0,0,.472,1.841H25.931Zm15.827-7.119V66a1.926,1.926,0,0,1-1.924,1.924H32.527a1.843,1.843,0,0,1-1.841-1.841V55.156a1.843,1.843,0,0,1,1.841-1.841h7.307A1.926,1.926,0,0,1,41.758,55.239Zm-9.231-3.914A3.835,3.835,0,0,0,28.7,55.156v5.212H25.931v-5.1a16.72,16.72,0,0,1,7.83-14.191V51.325ZM44.306,23.907V20.985a13.2,13.2,0,0,0,6.576-2.141,8.773,8.773,0,0,1,9.5,0,13.2,13.2,0,0,0,6.576,2.141v2.923a10.656,10.656,0,0,1-3.4,7.791l-4.2,3.891a5.505,5.505,0,0,1-7.453,0l-4.2-3.891a10.656,10.656,0,0,1-3.4-7.791ZM48.016,34.7l2.535,2.35a7.5,7.5,0,0,0,10.158,0l2.535-2.35v3.979a5.8,5.8,0,0,1-5.794,5.794H53.81a5.8,5.8,0,0,1-5.794-5.794ZM70.221,18.285a.8.8,0,0,1,.8.8v3.406A2.514,2.514,0,0,1,68.9,24.966c.03-.351.046-.7.046-1.059V20.619a2.542,2.542,0,0,0,1.183-2.33c.031,0,.062,0,.093,0ZM55.63,5.093c1.386,0,3.039.372,3.039,2.142,0,.691-.783,2.256-2.979,4.576a.081.081,0,0,1-.119,0c-2.2-2.321-2.979-3.886-2.979-4.576C52.592,5.465,54.244,5.093,55.63,5.093Zm-2.5,6.981c.3.358.634.725.994,1.1a2.085,2.085,0,0,0,3.01,0c.36-.38.689-.747.994-1.1h10.01V18.5a.537.537,0,0,1-.639.511,11.145,11.145,0,0,1-6.04-1.836,10.763,10.763,0,0,0-11.656,0,11.145,11.145,0,0,1-6.04,1.836.538.538,0,0,1-.639-.511V12.074ZM40.545,22.488V19.081a.8.8,0,0,1,.587-.767,2.533,2.533,0,0,0,1.183,2.3v3.289q0,.5.039.991a2.516,2.516,0,0,1-1.81-2.411Zm6.107,24.393a7.92,7.92,0,0,1-2.334-5.636V38.494h1.707a7.8,7.8,0,0,0,7.784,7.968h3.64a7.8,7.8,0,0,0,7.784-7.968h1.707v2.751a7.919,7.919,0,0,1-2.334,5.636L55.95,55.542a.433.433,0,0,1-.639,0Zm9.973,10.571a2.439,2.439,0,0,0,.732-.5l8.658-8.661a9.9,9.9,0,0,0,2.916-7.043v-3.8A.452.452,0,0,1,69.384,37h5.674a.452.452,0,0,1,.452.452v30.48H56.625ZM77.5,67.927V62.358h7.83v5.569Z" transform="translate(-23.941 0)"/>
        <circle id="Ellipse_13747" data-name="Ellipse 13747" cx="1.247" cy="1.247" r="1.247" transform="translate(8.843 55.712)"/>
        <path id="Path_1244455" data-name="Path 1244455" d="M95.718,443.695H91.54a.995.995,0,1,0,0,1.99h4.178a.995.995,0,1,0,0-1.99Z" transform="translate(-81.45 -383.105)"/>
        <path id="Path_1244456" data-name="Path 1244456" d="M95.718,474.684H91.54a1,1,0,1,0,0,1.99h4.178a1,1,0,1,0,0-1.99Z" transform="translate(-81.45 -409.863)"/>
        <path id="Path_1244457" data-name="Path 1244457" d="M303.5,421.64h-9.867a1.793,1.793,0,0,0-1.791,1.791v3.989a1.793,1.793,0,0,0,1.791,1.791H303.5a1.793,1.793,0,0,0,1.791-1.791v-3.989A1.793,1.793,0,0,0,303.5,421.64Zm-.2,5.581H293.83V423.63H303.3Z" transform="translate(-255.257 -364.062)"/>
      </g>
    </g>
  </g>
</svg>
