<svg xmlns="http://www.w3.org/2000/svg" xmlns:xlink="http://www.w3.org/1999/xlink" width="118" height="118" viewBox="0 0 118 118">
  <defs>
    <filter id="Rectangle_411831" x="0" y="0" width="118" height="118" filterUnits="userSpaceOnUse">
      <feOffset dy="3" input="SourceAlpha"/>
      <feGaussianBlur stdDeviation="3" result="blur"/>
      <feFlood flood-opacity="0.161"/>
      <feComposite operator="in" in2="blur"/>
      <feComposite in="SourceGraphic"/>
    </filter>
  </defs>
  <g id="Group_1255740" data-name="Group 1255740" transform="translate(-326.781 -3852)">
    <g transform="matrix(1, 0, 0, 1, 326.78, 3852)" filter="url(#Rectangle_411831)">
      <g id="Rectangle_411831-2" data-name="Rectangle 411831" transform="translate(9 6)" fill="#e8de49" stroke="#fff" stroke-width="2">
        <path d="M5,0H68a32,32,0,0,1,32,32V95a5,5,0,0,1-5,5H32A32,32,0,0,1,0,68V5A5,5,0,0,1,5,0Z" stroke="none"/>
        <path d="M5,1H68A31,31,0,0,1,99,32V95a4,4,0,0,1-4,4H32A31,31,0,0,1,1,68V5A4,4,0,0,1,5,1Z" fill="none"/>
      </g>
    </g>
    <g id="Group_1255750" data-name="Group 1255750" transform="translate(1778.762 7507.877)">
      <rect id="Rectangle_434856" data-name="Rectangle 434856" width="66.962" height="42.274" transform="translate(-1426.462 -3633.359)" fill="#ecf0f1" stroke="#000" stroke-linecap="round" stroke-linejoin="round" stroke-width="1" stroke-dasharray="80 5"/>
      <path id="Path_1491071" data-name="Path 1491071" d="M54.171,20.03a8.522,8.522,0,0,1,.931,3.843,8.052,8.052,0,0,1-8.036,8.036,7.953,7.953,0,0,1-7.919-8.036h8.036Z" transform="translate(-1420.542 -3630.331)" fill="#5b5a57" stroke="#000" stroke-linecap="round" stroke-linejoin="round" stroke-width="1" stroke-dasharray="80 5"/>
      <path id="Path_1491072" data-name="Path 1491072" d="M46.128,24.424V16.388a7.947,7.947,0,0,1,6.988,4.193Z" transform="translate(-1419.486 -3630.882)" fill="#d25400" stroke="#000" stroke-linecap="round" stroke-linejoin="round" stroke-width="1" stroke-dasharray="80 5"/>
      <path id="Path_1491073" data-name="Path 1491073" d="M39.148,24.424a8.052,8.052,0,0,1,8.036-8.036v8.036Z" transform="translate(-1420.542 -3630.882)" fill="#ea7e23" stroke="#000" stroke-linecap="round" stroke-linejoin="round" stroke-width="1" stroke-dasharray="80 5"/>
      <path id="Path_1491074" data-name="Path 1491074" d="M31.562,55.853A11.679,11.679,0,0,1,43.207,44.207L40.3,51.544l2.911,2.911,2.913-2.911-2.913-7.337A11.679,11.679,0,0,1,54.852,55.853a14.2,14.2,0,0,1-.815,4.425H32.376a14.2,14.2,0,0,1-.814-4.425" transform="translate(-1421.689 -3626.675)" fill="#4e679b" stroke="#000" stroke-linecap="round" stroke-linejoin="round" stroke-width="1" stroke-dasharray="80 5"/>
      <path id="Path_1491075" data-name="Path 1491075" d="M22.144,51.544l-2.911-7.337A11.68,11.68,0,0,1,30.878,55.853a14.163,14.163,0,0,1-.816,4.425H8.4a11.085,11.085,0,0,1-.815-4.425A11.68,11.68,0,0,1,19.233,44.207l-2.911,7.337,2.911,2.911Z" transform="translate(-1425.315 -3626.675)" fill="#65b2fe" stroke="#000" stroke-linecap="round" stroke-linejoin="round" stroke-width="1" stroke-dasharray="80 5"/>
      <path id="Path_1491076" data-name="Path 1491076" d="M42.06,44.207l2.911,7.337L42.06,54.455l-2.911-2.911Z" transform="translate(-1420.542 -3626.675)" fill="#313a52" stroke="#000" stroke-linecap="round" stroke-linejoin="round" stroke-width="1" stroke-dasharray="80 5"/>
      <path id="Path_1491077" data-name="Path 1491077" d="M15.174,51.543l2.911-7.337L21,51.543l-2.911,2.911Z" transform="translate(-1424.167 -3626.675)" fill="#313a52" stroke="#000" stroke-linecap="round" stroke-linejoin="round" stroke-width="1" stroke-dasharray="80 5"/>
      <path id="Path_1491078" data-name="Path 1491078" d="M23.476,37a6.056,6.056,0,0,1,.815,2.911,5.823,5.823,0,0,1-11.646,0A5,5,0,0,1,13.46,37a5.763,5.763,0,0,1,10.016,0" transform="translate(-1424.55 -3628.205)" fill="#ffd8a8" stroke="#000" stroke-linecap="round" stroke-linejoin="round" stroke-width="1" stroke-dasharray="80 5"/>
      <path id="Path_1491079" data-name="Path 1491079" d="M47.45,37a6.044,6.044,0,0,1,.815,2.911,5.823,5.823,0,0,1-11.646,0A5,5,0,0,1,37.434,37,5.763,5.763,0,0,1,47.45,37" transform="translate(-1420.924 -3628.205)" fill="#ffd8a8" stroke="#000" stroke-linecap="round" stroke-linejoin="round" stroke-width="1" stroke-dasharray="80 5"/>
      <path id="Path_1491080" data-name="Path 1491080" d="M21.135,15.31a1.429,1.429,0,0,1-1.049-.465,1.479,1.479,0,0,1,0-2.1l4.193-4.192a1.482,1.482,0,0,1,2.1,2.1l-4.193,4.194a1.427,1.427,0,0,1-1.048.465" transform="translate(-1423.49 -3632.132)" fill="#b53532" stroke="#000" stroke-linecap="round" stroke-linejoin="round" stroke-width="1" stroke-dasharray="80 5"/>
      <path id="Path_1491081" data-name="Path 1491081" d="M31.6,15.31a1.432,1.432,0,0,1-1.05-.465l-4.19-4.194a1.482,1.482,0,1,1,2.1-2.1l4.193,4.192a1.479,1.479,0,0,1,0,2.1,1.431,1.431,0,0,1-1.048.465" transform="translate(-1422.542 -3632.132)" fill="#b53532" stroke="#000" stroke-linecap="round" stroke-linejoin="round" stroke-width="1" stroke-dasharray="80 5"/>
      <path id="Path_1491082" data-name="Path 1491082" d="M33.78,15.31a1.429,1.429,0,0,1-1.049-.465,1.477,1.477,0,0,1,0-2.1l4.193-4.192a1.482,1.482,0,1,1,2.1,2.1l-4.193,4.194a1.427,1.427,0,0,1-1.048.465" transform="translate(-1421.578 -3632.132)" fill="#b53532" stroke="#000" stroke-linecap="round" stroke-linejoin="round" stroke-width="1" stroke-dasharray="80 5"/>
      <path id="Path_1491083" data-name="Path 1491083" d="M9.581,6.67H5.156A1.542,1.542,0,0,1,3.642,5.156,1.542,1.542,0,0,1,5.156,3.642H9.581a1.542,1.542,0,0,1,1.514,1.514A1.542,1.542,0,0,1,9.581,6.67" transform="translate(-1425.911 -3632.809)" fill="#313a52" stroke="#000" stroke-linecap="round" stroke-linejoin="round" stroke-width="1" stroke-dasharray="80 5"/>
      <path id="Path_1491084" data-name="Path 1491084" d="M9.581,10.514H5.156a1.514,1.514,0,1,1,0-3.028H9.581a1.514,1.514,0,1,1,0,3.028" transform="translate(-1425.911 -3632.228)" fill="#313a52" stroke="#000" stroke-linecap="round" stroke-linejoin="round" stroke-width="1" stroke-dasharray="80 5"/>
      <path id="Path_1491085" data-name="Path 1491085" d="M53.888,6.67H49.463a1.542,1.542,0,0,1-1.514-1.514,1.542,1.542,0,0,1,1.514-1.514h4.425A1.542,1.542,0,0,1,55.4,5.156,1.727,1.727,0,0,1,53.888,6.67" transform="translate(-1419.211 -3632.809)" fill="#65b2fe" stroke="#000" stroke-linecap="round" stroke-linejoin="round" stroke-width="1" stroke-dasharray="80 5"/>
      <path id="Path_1491086" data-name="Path 1491086" d="M53.888,10.514H49.463a1.514,1.514,0,1,1,0-3.028h4.425A1.543,1.543,0,0,1,55.4,9a1.726,1.726,0,0,1-1.514,1.513" transform="translate(-1419.211 -3632.228)" fill="#65b2fe" stroke="#000" stroke-linecap="round" stroke-linejoin="round" stroke-width="1" stroke-dasharray="80 5"/>
      <path id="Path_1491087" data-name="Path 1491087" d="M9.581,14.257H5.156a1.514,1.514,0,1,1,0-3.028H9.581a1.514,1.514,0,1,1,0,3.028" transform="translate(-1425.911 -3631.662)" fill="#313a52" stroke="#000" stroke-linecap="round" stroke-linejoin="round" stroke-width="1" stroke-dasharray="80 5"/>
      <path id="Path_1491088" data-name="Path 1491088" d="M9.581,18.1H5.156a1.514,1.514,0,1,1,0-3.028H9.581a1.514,1.514,0,1,1,0,3.028" transform="translate(-1425.911 -3631.08)" fill="#313a52" stroke="#000" stroke-linecap="round" stroke-linejoin="round" stroke-width="1" stroke-dasharray="80 5"/>
      <path id="Path_1491089" data-name="Path 1491089" d="M9.581,21.844H5.156a1.514,1.514,0,1,1,0-3.028H9.581a1.514,1.514,0,1,1,0,3.028" transform="translate(-1425.911 -3630.514)" fill="#313a52" stroke="#000" stroke-linecap="round" stroke-linejoin="round" stroke-width="1" stroke-dasharray="80 5"/>
      <path id="Path_1491090" data-name="Path 1491090" d="M9.581,25.688H5.156a1.514,1.514,0,1,1,0-3.028H9.581a1.514,1.514,0,1,1,0,3.028" transform="translate(-1425.911 -3629.933)" fill="#313a52" stroke="#000" stroke-linecap="round" stroke-linejoin="round" stroke-width="1" stroke-dasharray="80 5"/>
      <path id="Path_1491091" data-name="Path 1491091" d="M16.587,32.725a1.542,1.542,0,0,1-1.514-1.514V25.388a1.514,1.514,0,0,1,3.028,0v5.823a1.542,1.542,0,0,1-1.514,1.514" transform="translate(-1424.182 -3629.749)" fill="#ef727a" stroke="#000" stroke-linecap="round" stroke-linejoin="round" stroke-width="1" stroke-dasharray="80 5"/>
      <path id="Path_1491092" data-name="Path 1491092" d="M20.431,32.541a1.542,1.542,0,0,1-1.514-1.514V26.6a1.514,1.514,0,1,1,3.028,0v4.425a1.727,1.727,0,0,1-1.514,1.514" transform="translate(-1423.601 -3629.566)" fill="#ef727a" stroke="#000" stroke-linecap="round" stroke-linejoin="round" stroke-width="1" stroke-dasharray="80 5"/>
      <path id="Path_1491093" data-name="Path 1491093" d="M24.174,32.908a1.542,1.542,0,0,1-1.514-1.514v-7.22a1.514,1.514,0,0,1,3.028,0v7.337a1.525,1.525,0,0,1-1.514,1.4" transform="translate(-1423.035 -3629.933)" fill="#ef727a" stroke="#000" stroke-linecap="round" stroke-linejoin="round" stroke-width="1" stroke-dasharray="80 5"/>
      <path id="Path_1491094" data-name="Path 1491094" d="M28.018,32.725A1.542,1.542,0,0,1,26.5,31.211V25.388a1.514,1.514,0,0,1,3.028,0v5.823a1.727,1.727,0,0,1-1.514,1.514" transform="translate(-1422.454 -3629.749)" fill="#ef727a" stroke="#000" stroke-linecap="round" stroke-linejoin="round" stroke-width="1" stroke-dasharray="80 5"/>
      <path id="Path_1491095" data-name="Path 1491095" d="M31.761,33.107a1.542,1.542,0,0,1-1.514-1.514V22.859a1.513,1.513,0,1,1,3.027,0v8.734a1.541,1.541,0,0,1-1.513,1.514" transform="translate(-1421.888 -3630.132)" fill="#ef727a" stroke="#000" stroke-linecap="round" stroke-linejoin="round" stroke-width="1" stroke-dasharray="80 5"/>
      <path id="Path_1491096" data-name="Path 1491096" d="M40.349,6.858a2.327,2.327,0,0,1,0,3.145,2.328,2.328,0,0,1-3.144,0,2.327,2.327,0,0,1,0-3.145,2.326,2.326,0,0,1,3.144,0" transform="translate(-1420.928 -3632.415)" fill="#f14742" stroke="#000" stroke-linecap="round" stroke-width="1" stroke-dasharray="80 5"/>
      <path id="Path_1491097" data-name="Path 1491097" d="M34.078,13.231a2.223,2.223,0,1,1-3.144,0,2.326,2.326,0,0,1,3.144,0" transform="translate(-1421.876 -3631.451)" fill="#f14742" stroke="#000" stroke-linecap="round" stroke-width="1" stroke-dasharray="80 5"/>
      <path id="Path_1491098" data-name="Path 1491098" d="M27.705,6.858a2.327,2.327,0,0,1,0,3.145,2.328,2.328,0,0,1-3.144,0,2.327,2.327,0,0,1,0-3.145,2.326,2.326,0,0,1,3.144,0" transform="translate(-1422.84 -3632.415)" fill="#f14742" stroke="#000" stroke-linecap="round" stroke-width="1" stroke-dasharray="80 5"/>
      <path id="Path_1491099" data-name="Path 1491099" d="M21.433,13.231a2.223,2.223,0,0,1-3.144,3.144,2.223,2.223,0,1,1,3.144-3.144" transform="translate(-1423.789 -3631.451)" fill="#f14742" stroke="#000" stroke-linecap="round" stroke-width="1" stroke-dasharray="80 5"/>
      <path id="Path_1491100" data-name="Path 1491100" d="M39.047,31.96h-26.2a1.514,1.514,0,0,1,0-3.029h26.2a1.543,1.543,0,0,1,1.514,1.515,1.627,1.627,0,0,1-1.514,1.514" transform="translate(-1424.749 -3628.985)" fill="#3c3b3d" stroke="#000" stroke-linecap="round" stroke-linejoin="round" stroke-width="1" stroke-dasharray="80 5"/>
    </g>
  </g>
</svg>
