<svg xmlns="http://www.w3.org/2000/svg" xmlns:xlink="http://www.w3.org/1999/xlink" width="118" height="118" viewBox="0 0 118 118">
  <defs>
    <filter id="Rectangle_411831" x="0" y="0" width="118" height="118" filterUnits="userSpaceOnUse">
      <feOffset dy="3" input="SourceAlpha"/>
      <feGaussianBlur stdDeviation="3" result="blur"/>
      <feFlood flood-opacity="0.161"/>
      <feComposite operator="in" in2="blur"/>
      <feComposite in="SourceGraphic"/>
    </filter>
  </defs>
  <g id="Group_1247389" data-name="Group 1247389" transform="translate(-326.781 -3852)">
    <g transform="matrix(1, 0, 0, 1, 326.78, 3852)" filter="url(#Rectangle_411831)">
      <g id="Rectangle_411831-2" data-name="Rectangle 411831" transform="translate(9 6)" fill="#e8de49" stroke="#fff" stroke-width="2">
        <path d="M5,0H68a32,32,0,0,1,32,32V95a5,5,0,0,1-5,5H32A32,32,0,0,1,0,68V5A5,5,0,0,1,5,0Z" stroke="none"/>
        <path d="M5,1H68A31,31,0,0,1,99,32V95a4,4,0,0,1-4,4H32A31,31,0,0,1,1,68V5A4,4,0,0,1,5,1Z" fill="none"/>
      </g>
    </g>
    <g id="Group_1255746" data-name="Group 1255746" transform="translate(2164.364 7500.083)">
      <path id="Path_1491022" data-name="Path 1491022" d="M38.149,32.876A11.68,11.68,0,0,1,49.794,44.522a14.162,14.162,0,0,1-.815,4.425H27.319a11.085,11.085,0,0,1-.816-4.425A11.68,11.68,0,0,1,38.149,32.876l-2.911,7.337,2.911,2.911,2.911-2.911Z" transform="translate(-1801.476 -3614.071)" fill="#ef727a" stroke="#000" stroke-linecap="round" stroke-linejoin="round" stroke-width="1" stroke-dasharray="80 5"/>
      <path id="Path_1491023" data-name="Path 1491023" d="M14.174,32.876A11.68,11.68,0,0,1,25.819,44.522,14.162,14.162,0,0,1,25,48.947H3.345a11.066,11.066,0,0,1-.817-4.425A11.68,11.68,0,0,1,14.174,32.876l-2.911,7.337,2.911,2.911,2.911-2.911Z" transform="translate(-1805.101 -3614.071)" fill="#65b2fe" stroke="#000" stroke-linecap="round" stroke-linejoin="round" stroke-width="1" stroke-dasharray="80 5"/>
      <path id="Path_1491024" data-name="Path 1491024" d="M37,32.876l2.911,7.22L37,43.008,34.09,40.1Z" transform="translate(-1800.328 -3614.071)" fill="#313a52" stroke="#000" stroke-linecap="round" stroke-linejoin="round" stroke-width="1" stroke-dasharray="80 5"/>
      <path id="Path_1491025" data-name="Path 1491025" d="M13.027,32.876l2.911,7.22-2.911,2.911L10.115,40.1Z" transform="translate(-1803.954 -3614.071)" fill="#313a52" stroke="#000" stroke-linecap="round" stroke-linejoin="round" stroke-width="1" stroke-dasharray="80 5"/>
      <path id="Path_1491026" data-name="Path 1491026" d="M37.384,22.761a5.823,5.823,0,1,1-5.823,5.823,5.822,5.822,0,0,1,5.823-5.823" transform="translate(-1800.711 -3615.601)" fill="#ffd8a8" stroke="#000" stroke-linecap="round" stroke-linejoin="round" stroke-width="1" stroke-dasharray="80 5"/>
      <path id="Path_1491027" data-name="Path 1491027" d="M13.409,22.761a5.823,5.823,0,1,1-5.823,5.823,5.822,5.822,0,0,1,5.823-5.823" transform="translate(-1804.336 -3615.601)" fill="#ffd8a8" stroke="#000" stroke-linecap="round" stroke-linejoin="round" stroke-width="1" stroke-dasharray="80 5"/>
      <path id="Path_1491028" data-name="Path 1491028" d="M46.883,5.058V18.1H42.574l1.4,4.425L37.451,18.1H26.5V5.058Z" transform="translate(-1801.476 -3618.278)" fill="#f4cd7b" stroke="#000" stroke-linecap="round" stroke-linejoin="round" stroke-width="1" stroke-dasharray="80 5"/>
      <path id="Path_1491029" data-name="Path 1491029" d="M30.511,5.822V20.38H12.227L2.91,27.6l3.145-7.22H0V0H30.511Z" transform="translate(-1805.484 -3619.042)" fill="#80af52" stroke="#000" stroke-linecap="round" stroke-linejoin="round" stroke-width="1" stroke-dasharray="80 5"/>
      <path id="Path_1491030" data-name="Path 1491030" d="M24.122,6.669H5.256A1.542,1.542,0,0,1,3.742,5.155,1.542,1.542,0,0,1,5.256,3.641H24.239a1.541,1.541,0,0,1,1.513,1.514,1.64,1.64,0,0,1-1.63,1.514" transform="translate(-1804.918 -3618.491)" fill="#fff" stroke="#000" stroke-linecap="round" stroke-linejoin="round" stroke-width="1" stroke-dasharray="80 5"/>
      <path id="Path_1491031" data-name="Path 1491031" d="M24.122,10.514H5.256a1.514,1.514,0,1,1,0-3.028H24.239A1.541,1.541,0,0,1,25.752,9a1.739,1.739,0,0,1-1.63,1.514" transform="translate(-1804.918 -3617.91)" fill="#fff" stroke="#000" stroke-linecap="round" stroke-linejoin="round" stroke-width="1" stroke-dasharray="80 5"/>
      <path id="Path_1491032" data-name="Path 1491032" d="M13.99,14.256H5.256a1.514,1.514,0,1,1,0-3.028H13.99a1.514,1.514,0,1,1,0,3.028" transform="translate(-1804.918 -3617.345)" fill="#fff" stroke="#000" stroke-linecap="round" stroke-linejoin="round" stroke-width="1" stroke-dasharray="80 5"/>
      <path id="Path_1491033" data-name="Path 1491033" d="M37.583,11.728H31.76a1.514,1.514,0,1,1,0-3.028h5.823A1.543,1.543,0,0,1,39.1,10.214a1.469,1.469,0,0,1-1.515,1.514" transform="translate(-1800.91 -3617.727)" fill="#fff" stroke="#000" stroke-linecap="round" stroke-linejoin="round" stroke-width="1" stroke-dasharray="80 5"/>
    </g>
  </g>
</svg>
