<svg xmlns="http://www.w3.org/2000/svg" xmlns:xlink="http://www.w3.org/1999/xlink" width="118" height="118" viewBox="0 0 118 118">
  <defs>
    <filter id="Rectangle_411831" x="0" y="0" width="118" height="118" filterUnits="userSpaceOnUse">
      <feOffset dy="3" input="SourceAlpha"/>
      <feGaussianBlur stdDeviation="3" result="blur"/>
      <feFlood flood-opacity="0.161"/>
      <feComposite operator="in" in2="blur"/>
      <feComposite in="SourceGraphic"/>
    </filter>
    <clipPath id="clip-path">
      <rect id="Rectangle_434829" data-name="Rectangle 434829" width="68.07" height="56.998" fill="none"/>
    </clipPath>
  </defs>
  <g id="Group_1255711" data-name="Group 1255711" transform="translate(-326.781 -3852)">
    <g transform="matrix(1, 0, 0, 1, 326.78, 3852)" filter="url(#Rectangle_411831)">
      <g id="Rectangle_411831-2" data-name="Rectangle 411831" transform="translate(9 6)" fill="#e8de49" stroke="#fff" stroke-width="2">
        <path d="M5,0H68a32,32,0,0,1,32,32V95a5,5,0,0,1-5,5H32A32,32,0,0,1,0,68V5A5,5,0,0,1,5,0Z" stroke="none"/>
        <path d="M5,1H68A31,31,0,0,1,99,32V95a4,4,0,0,1-4,4H32A31,31,0,0,1,1,68V5A4,4,0,0,1,5,1Z" fill="none"/>
      </g>
    </g>
    <g id="Group_1255712" data-name="Group 1255712" transform="translate(351.746 3879.502)">
      <g id="Group_1255700" data-name="Group 1255700" transform="translate(0 0)">
        <g id="Group_1255699" data-name="Group 1255699" clip-path="url(#clip-path)">
          <path id="Path_1490895" data-name="Path 1490895" d="M26.051,35.79l-2.294,8.387H.75V27.108A5.948,5.948,0,0,1,6.688,21.17H9.37a5.922,5.922,0,0,1,4.666,2.263L23.757,35.79Z" transform="translate(0.413 11.651)" fill="#29abe2"/>
          <path id="Path_1490896" data-name="Path 1490896" d="M18.8,16.432a8.065,8.065,0,1,1-8.065-8.065A8.065,8.065,0,0,1,18.8,16.432" transform="translate(1.468 4.605)" fill="#fbb03b"/>
          <path id="Path_1490897" data-name="Path 1490897" d="M46.286,24.91,41.6,42.119H15.59l2.294-8.387,2.4-8.821Z" transform="translate(8.58 13.709)" fill="#f15a24"/>
          <rect id="Rectangle_434825" data-name="Rectangle 434825" width="13.178" height="13.178" transform="translate(27.994 19.379)" fill="#29abe2"/>
          <rect id="Rectangle_434826" data-name="Rectangle 434826" width="13.178" height="13.178" transform="translate(27.994 1.163)" fill="#29abe2"/>
          <rect id="Rectangle_434827" data-name="Rectangle 434827" width="20.25" height="4.502" transform="translate(46.657 9.838)" fill="#fbb03b"/>
          <rect id="Rectangle_434828" data-name="Rectangle 434828" width="20.25" height="4.502" transform="translate(46.657 28.055)" fill="#fbb03b"/>
        </g>
      </g>
      <g id="Group_1255702" data-name="Group 1255702" transform="translate(0 0)">
        <g id="Group_1255701" data-name="Group 1255701" clip-path="url(#clip-path)">
          <path id="Path_1490898" data-name="Path 1490898" d="M.75,30.971V27.108A5.948,5.948,0,0,1,6.688,21.17H9.37a5.922,5.922,0,0,1,4.666,2.263L23.757,35.79h2.294l-2.294,8.387H.75v-8.6" transform="translate(0.413 11.651)" fill="none" stroke="#000" stroke-linecap="round" stroke-linejoin="round" stroke-width="1.5"/>
          <ellipse id="Ellipse_14135" data-name="Ellipse 14135" cx="8.065" cy="8.065" rx="8.065" ry="8.065" transform="translate(4.136 12.972)" fill="none" stroke="#000" stroke-linecap="round" stroke-linejoin="round" stroke-width="1.5"/>
          <path id="Path_1490899" data-name="Path 1490899" d="M8.17,32.3,16.8,38.056h2.877" transform="translate(4.496 17.778)" fill="none" stroke="#000" stroke-linecap="round" stroke-linejoin="round" stroke-width="1.5"/>
          <line id="Line_620" data-name="Line 620" x2="46.017" transform="translate(17.627 55.835)" fill="none" stroke="#000" stroke-linecap="round" stroke-linejoin="round" stroke-width="1.5"/>
          <path id="Path_1490900" data-name="Path 1490900" d="M43.669,34.531,41.6,42.12H15.59l2.294-8.389,2.4-8.821h26L44.9,30.021" transform="translate(8.579 13.709)" fill="none" stroke="#000" stroke-linecap="round" stroke-linejoin="round" stroke-width="1.5"/>
          <rect id="Rectangle_434830" data-name="Rectangle 434830" width="13.178" height="13.178" transform="translate(27.994 19.379)" fill="none" stroke="#000" stroke-linecap="round" stroke-linejoin="round" stroke-width="1.5"/>
          <path id="Path_1490901" data-name="Path 1490901" d="M20.683,17.461l4.961,4.961L35.566,12.5" transform="translate(11.382 6.879)" fill="none" stroke="#000" stroke-linecap="round" stroke-linejoin="round" stroke-width="1.5"/>
          <rect id="Rectangle_434831" data-name="Rectangle 434831" width="13.178" height="13.178" transform="translate(27.994 1.163)" fill="none" stroke="#000" stroke-linecap="round" stroke-linejoin="round" stroke-width="1.5"/>
          <path id="Path_1490902" data-name="Path 1490902" d="M20.683,5.711l4.961,4.961L35.566.75" transform="translate(11.382 0.413)" fill="none" stroke="#000" stroke-linecap="round" stroke-linejoin="round" stroke-width="1.5"/>
          <path id="Path_1490903" data-name="Path 1490903" d="M42.013,6.346H30.1v4.5h20.25v-4.5h-4.36" transform="translate(16.562 3.493)" fill="none" stroke="#000" stroke-linecap="round" stroke-linejoin="round" stroke-width="1.5"/>
          <rect id="Rectangle_434832" data-name="Rectangle 434832" width="20.25" height="4.502" transform="translate(46.657 28.055)" fill="none" stroke="#000" stroke-linecap="round" stroke-linejoin="round" stroke-width="1.5"/>
        </g>
      </g>
    </g>
  </g>
</svg>
