<svg xmlns="http://www.w3.org/2000/svg" xmlns:xlink="http://www.w3.org/1999/xlink" width="118" height="118" viewBox="0 0 118 118">
  <defs>
    <filter id="Rectangle_411831" x="0" y="0" width="118" height="118" filterUnits="userSpaceOnUse">
      <feOffset dy="3" input="SourceAlpha"/>
      <feGaussianBlur stdDeviation="3" result="blur"/>
      <feFlood flood-opacity="0.161"/>
      <feComposite operator="in" in2="blur"/>
      <feComposite in="SourceGraphic"/>
    </filter>
    <clipPath id="clip-path">
      <rect id="Rectangle_434823" data-name="Rectangle 434823" width="71.78" height="56.402" fill="none"/>
    </clipPath>
  </defs>
  <g id="Group_1255713" data-name="Group 1255713" transform="translate(-326.781 -3852)">
    <g transform="matrix(1, 0, 0, 1, 326.78, 3852)" filter="url(#Rectangle_411831)">
      <g id="Rectangle_411831-2" data-name="Rectangle 411831" transform="translate(9 6)" fill="#e8de49" stroke="#fff" stroke-width="2">
        <path d="M5,0H68a32,32,0,0,1,32,32V95a5,5,0,0,1-5,5H32A32,32,0,0,1,0,68V5A5,5,0,0,1,5,0Z" stroke="none"/>
        <path d="M5,1H68A31,31,0,0,1,99,32V95a4,4,0,0,1-4,4H32A31,31,0,0,1,1,68V5A4,4,0,0,1,5,1Z" fill="none"/>
      </g>
    </g>
    <g id="Group_1255714" data-name="Group 1255714" transform="translate(349.891 3879.799)">
      <g id="Group_1255695" data-name="Group 1255695" transform="translate(0 0)">
        <g id="Group_1255694" data-name="Group 1255694" clip-path="url(#clip-path)">
          <path id="Path_1490887" data-name="Path 1490887" d="M56.686,18.095V25L37.062,31.688V45.281H.75V31.741a13.644,13.644,0,0,1,9.676-13.054,13.132,13.132,0,0,1,3.992-.592Z" transform="translate(0.413 9.958)" fill="#f15a24"/>
          <path id="Path_1490888" data-name="Path 1490888" d="M29.549,12.369A10.716,10.716,0,1,1,18.833,1.653,10.717,10.717,0,0,1,29.549,12.369" transform="translate(4.467 0.91)" fill="#fbb03b"/>
          <path id="Path_1490889" data-name="Path 1490889" d="M36.83.75,50.349,9.833,36.83,18.917Z" transform="translate(20.268 0.413)" fill="#29abe2"/>
        </g>
      </g>
      <g id="Group_1255697" data-name="Group 1255697" transform="translate(0 0)">
        <g id="Group_1255696" data-name="Group 1255696" clip-path="url(#clip-path)">
          <path id="Path_1490890" data-name="Path 1490890" d="M37.062,42V45.28H.75V31.741a13.648,13.648,0,0,1,9.674-13.055,13.141,13.141,0,0,1,3.994-.591H56.686V25L37.062,31.688v5.177" transform="translate(0.413 9.958)" fill="none" stroke="#000" stroke-linecap="round" stroke-linejoin="round" stroke-width="1.5"/>
          <path id="Path_1490891" data-name="Path 1490891" d="M13.585,3.023A10.719,10.719,0,1,1,9.773,6.645" transform="translate(4.467 0.91)" fill="none" stroke="#000" stroke-linecap="round" stroke-linejoin="round" stroke-width="1.5"/>
          <path id="Path_1490892" data-name="Path 1490892" d="M12.525,18.1h7.764L19,24.227H13.813Z" transform="translate(6.893 9.959)" fill="none" stroke="#000" stroke-linecap="round" stroke-linejoin="round" stroke-width="1.5"/>
          <path id="Path_1490893" data-name="Path 1490893" d="M13.981,22.051l-1.76,13.007L13.9,43.1h5.358l1.674-8.037L19.17,22.051Z" transform="translate(6.726 12.136)" fill="none" stroke="#000" stroke-linecap="round" stroke-linejoin="round" stroke-width="1.5"/>
          <line id="Line_618" data-name="Line 618" y1="11.111" transform="translate(9.126 44.128)" fill="none" stroke="#000" stroke-linecap="round" stroke-linejoin="round" stroke-width="1.5"/>
          <line id="Line_619" data-name="Line 619" y1="54.077" transform="translate(57.098 1.163)" fill="none" stroke="#000" stroke-linecap="round" stroke-linejoin="round" stroke-width="1.5"/>
          <path id="Path_1490894" data-name="Path 1490894" d="M36.83.75,50.349,9.833,36.83,18.917Z" transform="translate(20.268 0.413)" fill="none" stroke="#000" stroke-linecap="round" stroke-linejoin="round" stroke-width="1.5"/>
        </g>
      </g>
    </g>
  </g>
</svg>
