<svg xmlns="http://www.w3.org/2000/svg" xmlns:xlink="http://www.w3.org/1999/xlink" width="118" height="118" viewBox="0 0 118 118">
  <defs>
    <filter id="Rectangle_411831" x="0" y="0" width="118" height="118" filterUnits="userSpaceOnUse">
      <feOffset dy="3" input="SourceAlpha"/>
      <feGaussianBlur stdDeviation="3" result="blur"/>
      <feFlood flood-opacity="0.161"/>
      <feComposite operator="in" in2="blur"/>
      <feComposite in="SourceGraphic"/>
    </filter>
    <clipPath id="clip-path">
      <rect id="Rectangle_434834" data-name="Rectangle 434834" width="67.955" height="72.916" fill="none"/>
    </clipPath>
  </defs>
  <g id="Group_1255709" data-name="Group 1255709" transform="translate(-326.781 -3852)">
    <g transform="matrix(1, 0, 0, 1, 326.78, 3852)" filter="url(#Rectangle_411831)">
      <g id="Rectangle_411831-2" data-name="Rectangle 411831" transform="translate(9 6)" fill="#e8de49" stroke="#fff" stroke-width="2">
        <path d="M5,0H68a32,32,0,0,1,32,32V95a5,5,0,0,1-5,5H32A32,32,0,0,1,0,68V5A5,5,0,0,1,5,0Z" stroke="none"/>
        <path d="M5,1H68A31,31,0,0,1,99,32V95a4,4,0,0,1-4,4H32A31,31,0,0,1,1,68V5A4,4,0,0,1,5,1Z" fill="none"/>
      </g>
    </g>
    <g id="Group_1255710" data-name="Group 1255710" transform="translate(351.803 3871.542)">
      <g id="Group_1255705" data-name="Group 1255705" transform="translate(0 0)">
        <g id="Group_1255704" data-name="Group 1255704" clip-path="url(#clip-path)">
          <path id="Path_1490904" data-name="Path 1490904" d="M36.933,32.984V48.1H.75V32.984A11.157,11.157,0,0,1,11.908,21.826H25.775A11.157,11.157,0,0,1,36.933,32.984" transform="translate(0.413 12.011)" fill="#29abe2"/>
          <path id="Path_1490905" data-name="Path 1490905" d="M24.287,17.145a8.759,8.759,0,1,1-8.758-8.758,8.757,8.757,0,0,1,8.758,8.758" transform="translate(3.726 4.615)" fill="#fbb03b"/>
          <path id="Path_1490906" data-name="Path 1490906" d="M47.008,6.28A5.529,5.529,0,1,1,41.478.75a5.53,5.53,0,0,1,5.53,5.53" transform="translate(19.784 0.412)" fill="#fbb03b"/>
          <path id="Path_1490907" data-name="Path 1490907" d="M47.008,44.68a5.529,5.529,0,1,1-5.53-5.53,5.53,5.53,0,0,1,5.53,5.53" transform="translate(19.784 21.544)" fill="#fbb03b"/>
          <path id="Path_1490908" data-name="Path 1490908" d="M47.008,32.081a5.529,5.529,0,1,1-5.53-5.53,5.53,5.53,0,0,1,5.53,5.53" transform="translate(19.784 14.611)" fill="#f15a24"/>
          <path id="Path_1490909" data-name="Path 1490909" d="M47.008,19a5.529,5.529,0,1,1-5.53-5.53A5.53,5.53,0,0,1,47.008,19" transform="translate(19.784 7.415)" fill="#29abe2"/>
        </g>
      </g>
      <g id="Group_1255707" data-name="Group 1255707" transform="translate(0 0)">
        <g id="Group_1255706" data-name="Group 1255706" clip-path="url(#clip-path)">
          <path id="Path_1490910" data-name="Path 1490910" d="M36.933,44.524V48.1H.75V32.984A11.157,11.157,0,0,1,11.908,21.826H25.775A11.157,11.157,0,0,1,36.933,32.984v5.856" transform="translate(0.413 12.011)" fill="none" stroke="#000" stroke-linecap="round" stroke-linejoin="round" stroke-width="1.5"/>
          <path id="Path_1490911" data-name="Path 1490911" d="M28.109,30.3V43.437H4.951V30.3" transform="translate(2.725 16.674)" fill="none" stroke="#000" stroke-linecap="round" stroke-linejoin="round" stroke-width="1.5"/>
          <path id="Path_1490912" data-name="Path 1490912" d="M8.725,11.629A8.759,8.759,0,1,1,6.77,17.145" transform="translate(3.726 4.615)" fill="none" stroke="#000" stroke-linecap="round" stroke-linejoin="round" stroke-width="1.5"/>
          <path id="Path_1490913" data-name="Path 1490913" d="M10.373,21.826H16.72l-1.053,5.012H11.425Z" transform="translate(5.708 12.011)" fill="none" stroke="#000" stroke-linecap="round" stroke-linejoin="round" stroke-width="1.5"/>
          <path id="Path_1490914" data-name="Path 1490914" d="M11.562,25.059,10.125,39.753l1.367,6.569h4.38l1.369-6.569L15.8,25.059Z" transform="translate(5.572 13.79)" fill="none" stroke="#000" stroke-linecap="round" stroke-linejoin="round" stroke-width="1.5"/>
          <path id="Path_1490915" data-name="Path 1490915" d="M39.472,4.317H29.55V64.046h9.922" transform="translate(16.262 2.375)" fill="none" stroke="#000" stroke-linecap="round" stroke-linejoin="round" stroke-width="1.5"/>
          <path id="Path_1490916" data-name="Path 1490916" d="M39.472,17.042H29.55V37.314h9.922" transform="translate(16.262 9.378)" fill="none" stroke="#000" stroke-linecap="round" stroke-linejoin="round" stroke-width="1.5"/>
          <path id="Path_1490917" data-name="Path 1490917" d="M47.008,6.28A5.529,5.529,0,1,1,41.478.75,5.53,5.53,0,0,1,47.008,6.28Z" transform="translate(19.784 0.412)" fill="none" stroke="#000" stroke-linecap="round" stroke-linejoin="round" stroke-width="1.5"/>
          <path id="Path_1490918" data-name="Path 1490918" d="M47.008,44.68a5.529,5.529,0,1,1-5.53-5.53A5.53,5.53,0,0,1,47.008,44.68Z" transform="translate(19.784 21.544)" fill="none" stroke="#000" stroke-linecap="round" stroke-linejoin="round" stroke-width="1.5"/>
          <path id="Path_1490919" data-name="Path 1490919" d="M47.008,32.081a5.529,5.529,0,1,1-5.53-5.53A5.53,5.53,0,0,1,47.008,32.081Z" transform="translate(19.784 14.611)" fill="none" stroke="#000" stroke-linecap="round" stroke-linejoin="round" stroke-width="1.5"/>
          <path id="Path_1490920" data-name="Path 1490920" d="M47.008,19a5.529,5.529,0,1,1-5.53-5.53A5.53,5.53,0,0,1,47.008,19Z" transform="translate(19.784 7.415)" fill="none" stroke="#000" stroke-linecap="round" stroke-linejoin="round" stroke-width="1.5"/>
        </g>
      </g>
    </g>
  </g>
</svg>
