<svg xmlns="http://www.w3.org/2000/svg" xmlns:xlink="http://www.w3.org/1999/xlink" width="118" height="118" viewBox="0 0 118 118">
  <defs>
    <filter id="Rectangle_411831" x="0" y="0" width="118" height="118" filterUnits="userSpaceOnUse">
      <feOffset dy="3" input="SourceAlpha"/>
      <feGaussianBlur stdDeviation="3" result="blur"/>
      <feFlood flood-opacity="0.161"/>
      <feComposite operator="in" in2="blur"/>
      <feComposite in="SourceGraphic"/>
    </filter>
  </defs>
  <g id="Group_1255725" data-name="Group 1255725" transform="translate(-791.781 -2537)">
    <g id="Group_1230590" data-name="Group 1230590" transform="translate(465 -1315)">
      <g transform="matrix(1, 0, 0, 1, 326.78, 3852)" filter="url(#Rectangle_411831)">
        <g id="Rectangle_411831-2" data-name="Rectangle 411831" transform="translate(9 6)" fill="#a4e0d4" stroke="#fff" stroke-width="2">
          <path d="M5,0H68a32,32,0,0,1,32,32V95a5,5,0,0,1-5,5H32A32,32,0,0,1,0,68V5A5,5,0,0,1,5,0Z" stroke="none"/>
          <path d="M5,1H68A31,31,0,0,1,99,32V95a4,4,0,0,1-4,4H32A31,31,0,0,1,1,68V5A4,4,0,0,1,5,1Z" fill="none"/>
        </g>
      </g>
    </g>
    <g id="Group_1255726" data-name="Group 1255726" transform="translate(819.873 2563.27)">
      <path id="Path_1490997" data-name="Path 1490997" d="M0,35.564V3.365A3.375,3.375,0,0,1,3.366,0H58.339A3.374,3.374,0,0,1,61.7,3.365V35.676c-1.683-.112-60.021-.112-61.7-.112" fill="#ecf0f1" stroke="#000" stroke-linecap="round" stroke-linejoin="round" stroke-width="1" stroke-dasharray="80 5"/>
      <path id="Path_1490998" data-name="Path 1490998" d="M36.882,55.133a1.41,1.41,0,0,1-1.346-1.009L31.5,40.66a1.419,1.419,0,1,1,2.693-.9l4.038,13.463a1.469,1.469,0,0,1-.9,1.794.842.842,0,0,1-.449.113" transform="translate(3.506 4.327)" fill="#414a56" stroke="#000" stroke-linecap="round" stroke-linejoin="round" stroke-width="1" stroke-dasharray="80 5"/>
      <path id="Path_1490999" data-name="Path 1490999" d="M17.1,55.134a.842.842,0,0,1-.449-.113,1.378,1.378,0,0,1-.9-1.794l4.038-13.463a1.419,1.419,0,0,1,2.693.9L18.445,54.125A1.573,1.573,0,0,1,17.1,55.134" transform="translate(1.749 4.326)" fill="#414a56" stroke="#000" stroke-linecap="round" stroke-linejoin="round" stroke-width="1" stroke-dasharray="80 5"/>
      <path id="Path_1491000" data-name="Path 1491000" d="M42,15.645V33.82H37.85V21.254Z" transform="translate(4.221 1.744)" fill="#ef727a" stroke="#000" stroke-linecap="round" stroke-linejoin="round" stroke-width="1" stroke-dasharray="80 5"/>
      <path id="Path_1491001" data-name="Path 1491001" d="M34.431,22.184V33.4h-4.15V19.379Z" transform="translate(3.377 2.161)" fill="#ef727a" stroke="#000" stroke-linecap="round" stroke-linejoin="round" stroke-width="1" stroke-dasharray="80 5"/>
      <path id="Path_1491002" data-name="Path 1491002" d="M26.861,18.314v15.37H22.71V16.856Z" transform="translate(2.532 1.88)" fill="#ef727a" stroke="#000" stroke-linecap="round" stroke-linejoin="round" stroke-width="1" stroke-dasharray="80 5"/>
      <path id="Path_1491003" data-name="Path 1491003" d="M19.291,15.645V33.82h-4.15V19.795Z" transform="translate(1.688 1.744)" fill="#ef727a" stroke="#000" stroke-linecap="round" stroke-linejoin="round" stroke-width="1" stroke-dasharray="80 5"/>
      <path id="Path_1491004" data-name="Path 1491004" d="M0,32v5.722a3.375,3.375,0,0,0,3.366,3.366H58.451a3.376,3.376,0,0,0,3.366-3.366V32Z" transform="translate(0 3.568)" fill="#57606f" stroke="#000" stroke-linecap="round" stroke-linejoin="round" stroke-width="1" stroke-dasharray="80 5"/>
      <path id="Path_1491005" data-name="Path 1491005" d="M26.691,34.52a1.458,1.458,0,1,1-1.458,1.458,1.484,1.484,0,0,1,1.458-1.458" transform="translate(2.814 3.849)" fill="#414a56" stroke="#000" stroke-linecap="round" stroke-linejoin="round" stroke-width="1" stroke-dasharray="80 5"/>
      <path id="Path_1491006" data-name="Path 1491006" d="M46.051,53.788h-35a1.458,1.458,0,1,1,0-2.917h35a1.485,1.485,0,0,1,1.458,1.458,1.566,1.566,0,0,1-1.458,1.458" transform="translate(1.069 5.672)" fill="#3c3b3d" stroke="#000" stroke-linecap="round" stroke-linejoin="round" stroke-width="1" stroke-dasharray="80 5"/>
      <path id="Path_1491007" data-name="Path 1491007" d="M47.892,10.712c-1.458-4.488-1.458-4.264-1.458-4.376A1.523,1.523,0,0,0,45.2,5.55H40.936a1.459,1.459,0,0,0,0,2.918h1.458l-5.161,6.844L35.326,9.478a1.326,1.326,0,0,0-1.906-.786l-7.18,3.59L24.108,7.907A1.48,1.48,0,0,0,22.2,7.234l-11.22,5.609a1.431,1.431,0,0,0,1.235,2.581L22.2,10.487l2.132,4.375a1.48,1.48,0,0,0,1.907.674l6.955-3.478L35.438,18.9a1.409,1.409,0,0,0,2.469.448l6.844-9.087.56,1.683a1.381,1.381,0,0,0,1.8.9,2.455,2.455,0,0,0,.785-2.131" transform="translate(1.135 0.619)" fill="#3c3b3d" stroke="#000" stroke-linecap="round" stroke-linejoin="round" stroke-width="1" stroke-dasharray="80 5"/>
      <path id="Path_1491008" data-name="Path 1491008" d="M3.734,25.8a1.458,1.458,0,0,0,2.917,0V.56A1.008,1.008,0,0,0,6.538,0H3.959a.839.839,0,0,0-.112.56Z" transform="translate(0.416)" fill="#bec3c7" stroke="#000" stroke-linecap="round" stroke-linejoin="round" stroke-width="1" stroke-dasharray="80 5"/>
      <path id="Path_1491009" data-name="Path 1491009" d="M50.613,8.074a1.485,1.485,0,0,0-1.458,1.458V34.775h2.8V9.42a1.3,1.3,0,0,0-1.346-1.346" transform="translate(5.481 0.9)" fill="#bec3c7" stroke="#000" stroke-linecap="round" stroke-linejoin="round" stroke-width="1" stroke-dasharray="80 5"/>
    </g>
  </g>
</svg>
